<svg id="bike" xmlns="http://www.w3.org/2000/svg" width="31.51" height="43.924" viewBox="0 0 31.51 43.924">
  <g id="Group_43" data-name="Group 43" transform="translate(11.458 29.601)">
    <g id="Group_42" data-name="Group 42" transform="translate(0)">
      <path id="Path_68" data-name="Path 68" d="M210.21,345.043a4.3,4.3,0,0,0-4.3,4.3v5.729a4.3,4.3,0,1,0,8.594,0V349.34A4.3,4.3,0,0,0,210.21,345.043Z" transform="translate(-205.913 -345.043)" fill="#fd6565"/>
    </g>
  </g>
  <g id="Group_45" data-name="Group 45" transform="translate(0)">
    <g id="Group_44" data-name="Group 44">
      <path id="Path_69" data-name="Path 69" d="M102.426,5.729H95.12a7.162,7.162,0,0,0-14.034,0H73.78a1.432,1.432,0,0,0,0,2.865h7.306A7.154,7.154,0,0,0,83.3,12.46a12.927,12.927,0,0,0-7.93,11.889V34.69a3.508,3.508,0,0,0,3.5,3.5h2.066V33.9a7.161,7.161,0,1,1,14.323,0v4.3H97.49a3.509,3.509,0,0,0,3.5-3.5V24.349A12.919,12.919,0,0,0,92.948,12.42,7.152,7.152,0,0,0,95.12,8.594h7.306a1.432,1.432,0,1,0,0-2.865ZM88.1,11.458a4.3,4.3,0,1,1,4.3-4.3A4.3,4.3,0,0,1,88.1,11.458Z" transform="translate(-72.348)" fill="#fd6565"/>
    </g>
  </g>
</svg>
