<svg id="buildings" xmlns="http://www.w3.org/2000/svg" width="40.754" height="40.754" viewBox="0 0 40.754 40.754">
  <path id="Path_108" data-name="Path 108" d="M30.566,17.941l9.029,9.029.96-.96L31.046,16.5a.68.68,0,0,0-.96,0l-4.274,4.274V6.113H25.8a.675.675,0,0,0-.193-.48L20.178.2A.674.674,0,0,0,19.7.007V0H.679A.679.679,0,0,0,0,.679v39.4a.679.679,0,0,0,.679.679H38.037a.679.679,0,0,0,.679-.679V29.488l.878.878.96-.96L31.046,19.9a.68.68,0,0,0-.96,0l-9.509,9.509.96.96.878-.878V39.4H1.358V1.358h17.66V6.113a.679.679,0,0,0,.679.679h4.755V22.134L20.576,26.01l.96.96ZM31.924,39.4H29.207V35.32h2.717ZM30.566,21.338l6.792,6.792V39.4H33.283V34.641a.679.679,0,0,0-.679-.679H28.528a.679.679,0,0,0-.679.679V39.4H23.773V28.13ZM20.377,5.434V2.319l3.115,3.115Zm0,0" fill="#fd6565"/>
  <path id="Path_109" data-name="Path 109" d="M296.679,340.075H299.4a.679.679,0,0,0,.679-.679v-2.717A.679.679,0,0,0,299.4,336h-2.717a.679.679,0,0,0-.679.679V339.4A.679.679,0,0,0,296.679,340.075Zm.679-2.717h1.358v1.358h-1.358Zm0,0" transform="translate(-270.868 -307.472)" fill="#fd6565"/>
  <path id="Path_110" data-name="Path 110" d="M376.679,340.075H379.4a.679.679,0,0,0,.679-.679v-2.717A.679.679,0,0,0,379.4,336h-2.717a.679.679,0,0,0-.679.679V339.4A.679.679,0,0,0,376.679,340.075Zm.679-2.717h1.358v1.358h-1.358Zm0,0" transform="translate(-344.076 -307.472)" fill="#fd6565"/>
  <path id="Path_111" data-name="Path 111" d="M326.792,13.585A6.792,6.792,0,1,0,320,6.792,6.792,6.792,0,0,0,326.792,13.585Zm0-12.226a5.434,5.434,0,1,1-5.434,5.434A5.434,5.434,0,0,1,326.792,1.358Zm0,0" transform="translate(-292.831)" fill="#fd6565"/>
  <path id="Path_112" data-name="Path 112" d="M378.038,38.113a.679.679,0,0,1-.679-.679H376a2.038,2.038,0,0,0,1.358,1.913v.8h1.358v-.8a2.033,2.033,0,0,0-.679-3.95.679.679,0,1,1,.679-.679h1.358a2.038,2.038,0,0,0-1.358-1.913V32h-1.358v.8a2.033,2.033,0,0,0,.679,3.95.679.679,0,1,1,0,1.358Zm0,0" transform="translate(-344.076 -29.283)" fill="#fd6565"/>
  <path id="Path_113" data-name="Path 113" d="M48,64H60.226v1.358H48Zm0,0" transform="translate(-43.925 -58.566)" fill="#fd6565"/>
  <path id="Path_114" data-name="Path 114" d="M48,112h1.358v1.358H48Zm0,0" transform="translate(-43.925 -102.491)" fill="#fd6565"/>
  <path id="Path_115" data-name="Path 115" d="M80,112h2.717v1.358H80Zm0,0" transform="translate(-73.208 -102.491)" fill="#fd6565"/>
  <path id="Path_116" data-name="Path 116" d="M128,112h10.868v1.358H128Zm0,0" transform="translate(-117.132 -102.491)" fill="#fd6565"/>
  <path id="Path_117" data-name="Path 117" d="M48,160H65.66v1.358H48Zm0,0" transform="translate(-43.925 -146.415)" fill="#fd6565"/>
  <path id="Path_118" data-name="Path 118" d="M48,208h2.717v1.358H48Zm0,0" transform="translate(-43.925 -190.34)" fill="#fd6565"/>
  <path id="Path_119" data-name="Path 119" d="M96,208h2.717v1.358H96Zm0,0" transform="translate(-87.849 -190.34)" fill="#fd6565"/>
  <path id="Path_120" data-name="Path 120" d="M144,208h2.717v1.358H144Zm0,0" transform="translate(-131.774 -190.34)" fill="#fd6565"/>
  <path id="Path_121" data-name="Path 121" d="M192,208h2.717v1.358H192Zm0,0" transform="translate(-175.698 -190.34)" fill="#fd6565"/>
  <path id="Path_122" data-name="Path 122" d="M240,208h1.358v1.358H240Zm0,0" transform="translate(-219.623 -190.34)" fill="#fd6565"/>
  <path id="Path_123" data-name="Path 123" d="M73.031,242.883l1.176.679,2.717-4.706a.679.679,0,0,0-.249-.929l-1.766-1.019.34-.588a2.039,2.039,0,0,0-3.532-2.038l-.679,1.176-6.792,11.764a.712.712,0,0,0-.077.2l-.862,4.211a.679.679,0,0,0,1.116.645l3.214-2.853a.646.646,0,0,0,.136-.168l6.453-11.176,1.176.679Zm.279-8.233a.679.679,0,0,1,.764,1l-.34.587-1.176-.679.34-.588A.67.67,0,0,1,73.311,234.65Zm-8,13.974.72.417-.984.872Zm1.63-.629-1.176-.679,6.113-10.588,1.176.679Zm0,0" transform="translate(-57.92 -213.457)" fill="#fd6565"/>
</svg>
