<svg id="car" xmlns="http://www.w3.org/2000/svg" width="50" height="22.885" viewBox="0 0 50 22.885">
  <g id="Group_79" data-name="Group 79" transform="translate(31.647 12.688)">
    <g id="Group_78" data-name="Group 78" transform="translate(0 0)">
      <path id="Path_86" data-name="Path 86" d="M73.364,287.834a5.1,5.1,0,1,1-5.1,5.1A5.1,5.1,0,0,1,73.364,287.834Zm0,8.157a3.059,3.059,0,1,0-3.059-3.059A3.063,3.063,0,0,0,73.364,295.991Z" transform="translate(-68.266 -287.834)" fill="#fd6565"/>
    </g>
  </g>
  <g id="Group_81" data-name="Group 81" transform="translate(0 0)">
    <g id="Group_80" data-name="Group 80" transform="translate(0 0)">
      <path id="Path_87" data-name="Path 87" d="M.833,152.829V148.02a.8.8,0,0,1,.57-.761l4.7-1.508a12.761,12.761,0,0,1,9.584-6.537l.03,0c9.934-1.321,17.393.834,22.181,6.409,3.564.05,7.2.766,9.343,2.084a3.893,3.893,0,0,1,1.828,3.137l.1,1.99a.818.818,0,0,1,.833.8v3.206a.818.818,0,0,1-.833.8H45.833a.823.823,0,0,1-.833-.81s0-.008,0-.013a5.838,5.838,0,0,0-11.666.022c.06.487-.339.8-.833.8h-15a.823.823,0,0,1-.833-.81s0-.008,0-.013a5.726,5.726,0,0,0-5.833-5.589A5.725,5.725,0,0,0,5,156.837c.06.487-.339.8-.833.8H.833a.818.818,0,0,1-.833-.8v-3.206A.818.818,0,0,1,.833,152.829Zm22.5-7.615a.409.409,0,0,0,.417.4H34.617a.4.4,0,0,0,.276-.7,18.69,18.69,0,0,0-11.1-4.371.419.419,0,0,0-.459.4Zm-10.012,0a.41.41,0,0,0,.417.4H21.25a.409.409,0,0,0,.417-.4v-4.377a.41.41,0,0,0-.414-.4,39.816,39.816,0,0,0-5.289.363,14.485,14.485,0,0,0-2.4.612.4.4,0,0,0-.27.383Zm-4.349.4h2.266a.409.409,0,0,0,.417-.4l-.022-2.172a.422.422,0,0,0-.673-.315,10.815,10.815,0,0,0-2.317,2.244A.4.4,0,0,0,8.972,145.615Z" transform="translate(0 -138.833)" fill="#fd6565"/>
    </g>
  </g>
  <g id="Group_83" data-name="Group 83" transform="translate(8.156 12.688)">
    <g id="Group_82" data-name="Group 82" transform="translate(0 0)">
      <path id="Path_88" data-name="Path 88" d="M363.5,287.834a5.1,5.1,0,1,1-5.1,5.1A5.1,5.1,0,0,1,363.5,287.834Zm0,8.157a3.059,3.059,0,1,0-3.059-3.059A3.063,3.063,0,0,0,363.5,295.991Z" transform="translate(-358.4 -287.834)" fill="#fd6565"/>
    </g>
  </g>
</svg>
