<svg id="house" xmlns="http://www.w3.org/2000/svg" width="38.958" height="38.948" viewBox="0 0 38.958 38.948">
  <g id="Group_37" data-name="Group 37" transform="translate(0 0)">
    <g id="Group_36" data-name="Group 36" transform="translate(0 0)">
      <path id="Path_66" data-name="Path 66" d="M38.949,16.916a3.4,3.4,0,0,0-1.186-2.337l-3.37-2.888V3.483a1.141,1.141,0,0,0-1.141-1.141H28.687a1.128,1.128,0,0,0-1.126,1.141V5.821L21.785.9a3.406,3.406,0,0,0-4.453,0L1.2,14.579a3.422,3.422,0,0,0-.37,4.83,3.459,3.459,0,0,0,3.755,1V37.875a1.128,1.128,0,0,0,1.126,1.141H33.252a1.141,1.141,0,0,0,1.141-1.141V20.406a3.423,3.423,0,0,0,4.555-3.49ZM29.828,4.624h2.3v5.11l-2.3-1.957Zm-5.691,32.11h-9.3V27.588h9.3Zm7.989,0H26.4V26.462a1.141,1.141,0,0,0-1.141-1.141H13.7a1.128,1.128,0,0,0-1.126,1.141V36.734H6.85V18.764l12.7-10.775L32.126,18.753v17.98ZM36.4,17.921a1.142,1.142,0,0,1-1.61.124L20.3,5.622a1.141,1.141,0,0,0-1.481,0L4.169,18.044a1.142,1.142,0,0,1-1.491-1.729L18.813,2.631a1.136,1.136,0,0,1,1.486,0L36.278,16.312A1.143,1.143,0,0,1,36.4,17.921Z" transform="translate(-0.001 -0.068)" fill="#fd6565"/>
    </g>
  </g>
  <g id="Group_39" data-name="Group 39" transform="translate(14.853 13.686)">
    <g id="Group_38" data-name="Group 38">
      <path id="Path_67" data-name="Path 67" d="M203.333,179.938h-7a1.128,1.128,0,0,0-1.126,1.141v6.848a1.128,1.128,0,0,0,1.126,1.141h7a1.141,1.141,0,0,0,1.141-1.141v-6.848A1.141,1.141,0,0,0,203.333,179.938Zm-1.126,6.848h-4.733v-4.565h4.733Z" transform="translate(-195.207 -179.938)" fill="#fd6565"/>
    </g>
  </g>
  <g id="Group_41" data-name="Group 41" transform="translate(19.555 29.817)">
    <g id="Group_40" data-name="Group 40">
      <circle id="Ellipse_14" data-name="Ellipse 14" cx="1.141" cy="1.141" r="1.141" fill="#fd6565"/>
    </g>
  </g>
</svg>
