<svg height="40.62" viewBox="0 0 30.444 40.62" width="30.444" xmlns="http://www.w3.org/2000/svg"><g fill="#fd6565"><path d="m93.979 9.54a.6.6 0 0 0 -.6.6v29.249a.041.041 0 0 1 -.041.041h-27.977a.041.041 0 0 1 -.041-.041v-38.158a.041.041 0 0 1 .041-.041h21.028v5.765a1.232 1.232 0 0 0 1.231 1.231h6.36a.6.6 0 0 0 .42-1.016l-7-7-.011-.01a.593.593 0 0 0 -.4-.156h-21.628a1.233 1.233 0 0 0 -1.231 1.227v38.158a1.232 1.232 0 0 0 1.231 1.231h27.982a1.232 1.232 0 0 0 1.231-1.231v-29.254a.6.6 0 0 0 -.595-.595zm-6.4-7.508 4.964 4.968h-4.923a.041.041 0 0 1 -.041-.041z" transform="translate(-64.13)"/><path d="m123.341 44.074v-2.074c.441.144.718.435.718.7a.6.6 0 1 0 1.19 0 2.114 2.114 0 0 0 -1.908-1.931v-.1a.6.6 0 0 0 -1.19 0v.1a2.114 2.114 0 0 0 -1.908 1.931 2.423 2.423 0 0 0 1.908 2.207v2.074c-.441-.144-.718-.435-.718-.7a.6.6 0 0 0 -1.19 0 2.114 2.114 0 0 0 1.908 1.931v.1a.6.6 0 0 0 1.19 0v-.1a2.114 2.114 0 0 0 1.908-1.931 2.422 2.422 0 0 0 -1.908-2.207zm-1.19-.461c-.6-.292-.718-.547-.718-.909 0-.27.277-.56.718-.7zm1.19 3.372v-1.613c.6.292.718.547.718.909 0 .27-.277.561-.718.705z" transform="translate(-115.791 -36.902)"/><path d="m135.04 176.951a.6.6 0 0 0 -.6-.6h-21.618a.6.6 0 0 0 -.6.6v11.449a.6.6 0 0 0 .6.6h21.623a.6.6 0 0 0 .6-.6v-11.449zm-11.366 10.849h-10.257v-2.626h10.257zm0-3.816h-10.257v-2.626h10.257zm0-3.816h-10.257v-2.626h10.257zm5.088 7.632h-3.9v-2.626h3.9zm0-3.816h-3.9v-2.626h3.9zm0-3.816h-3.9v-2.626h3.9zm5.088 7.632h-3.9v-2.626h3.9zm0-3.816h-3.9v-2.626h3.9zm0-3.816h-3.9v-2.626h3.9z" transform="translate(-108.411 -162.365)"/><path d="m212.195 360.728a3.775 3.775 0 1 0 3.775 3.775 3.779 3.779 0 0 0 -3.775-3.775zm0 6.36a2.585 2.585 0 1 1 2.585-2.585 2.588 2.588 0 0 1 -2.585 2.585z" transform="translate(-196.973 -332.109)"/><path d="m241.715 392.792a1.231 1.231 0 1 0 1.231 1.231 1.232 1.232 0 0 0 -1.231-1.231z" transform="translate(-226.493 -361.63)"/><path d="m117.909 384.776h-5.088a.6.6 0 1 0 0 1.19h5.088a.6.6 0 0 0 0-1.19z" transform="translate(-108.41 -354.25)"/><path d="m132.669 416.841h-3.816a.6.6 0 0 0 0 1.19h3.816a.6.6 0 0 0 0-1.19z" transform="translate(-123.17 -383.771)"/><path d="m325.693 376.76h-3.816a1.232 1.232 0 0 0 -1.231 1.231v2.544a1.232 1.232 0 0 0 1.231 1.231h3.816a1.232 1.232 0 0 0 1.231-1.231v-2.544a1.233 1.233 0 0 0 -1.231-1.231zm.041 3.775a.041.041 0 0 1 -.041.041h-3.816a.041.041 0 0 1 -.041-.041v-2.544a.041.041 0 0 1 .041-.041h3.816a.041.041 0 0 1 .041.041z" transform="translate(-300.295 -346.87)"/><path d="m274.418 56.115h-1.272a.6.6 0 1 0 0 1.19h1.272a.6.6 0 0 0 0-1.19z" transform="translate(-256.016 -51.663)"/><path d="m211.559 56.115h-2.544a.6.6 0 1 0 0 1.19h2.544a.6.6 0 0 0 0-1.19z" transform="translate(-196.973 -51.663)"/><path d="m217.283 88.18h-8.268a.6.6 0 1 0 0 1.19h8.268a.6.6 0 1 0 0-1.19z" transform="translate(-196.973 -81.184)"/><path d="m298.465 120.244h-1.272a.6.6 0 1 0 0 1.19h1.272a.6.6 0 0 0 0-1.19z" transform="translate(-278.155 -110.704)"/><path d="m213.467 120.244h-4.452a.6.6 0 1 0 0 1.19h4.452a.6.6 0 0 0 0-1.19z" transform="translate(-196.973 -110.704)"/></g></svg>