<svg xmlns="http://www.w3.org/2000/svg" width="47.324" height="46.378" viewBox="0 0 47.324 46.378">
  <g id="money" transform="translate(0 -5.115)">
    <g id="Group_47" data-name="Group 47" transform="translate(35.237 29.655)">
      <g id="Group_46" data-name="Group 46">
        <path id="Path_70" data-name="Path 70" d="M385.043,270.613a.689.689,0,0,0-.689.689.874.874,0,1,1-1.749,0,.689.689,0,1,0-1.377,0,2.252,2.252,0,1,0,4.5,0A.689.689,0,0,0,385.043,270.613Z" transform="translate(-381.228 -270.613)" fill="#fd6565"/>
      </g>
    </g>
    <g id="Group_49" data-name="Group 49" transform="translate(0 5.115)">
      <g id="Group_48" data-name="Group 48">
        <path id="Path_71" data-name="Path 71" d="M45.516,29.767l-1.938-.621a.811.811,0,0,1-.523-.53,12.5,12.5,0,0,0-1.832-3.625A13.3,13.3,0,0,0,40,23.548a17.083,17.083,0,0,0,.421-3.9c-.029-1.755-.38-2.784-1.072-3.147-.373-.2-1.508-.79-7.651,2.023a2.235,2.235,0,0,0-.407.242c-.414-.111-.838-.214-1.263-.307l-.156-.032a9.382,9.382,0,0,0,.843-3.488.689.689,0,0,0-1.376-.062,8.013,8.013,0,0,1-5.243,7.165,19.972,19.972,0,0,0-5.544,0,8.02,8.02,0,1,1,9.94-11.134.689.689,0,0,0,1.23-.619,9.4,9.4,0,1,0-13.387,12.2h0q-.642.167-1.273.377a.689.689,0,0,0,.437,1.306,18.483,18.483,0,0,1,11.649,0,.689.689,0,0,0,.437-1.306q-.63-.211-1.273-.377h0a9.391,9.391,0,0,0,2.859-2.8c.19.037.378.076.564.116q.371.081.738.172c-.008.03-.016.06-.022.09a8.214,8.214,0,0,0,.065,4.19,4.986,4.986,0,0,0,1.826,2.567A5.794,5.794,0,0,0,35.73,27.9a4.544,4.544,0,0,0,2.2-.508,4.194,4.194,0,0,0,1.619-2.3q.3.347.564.712a11.121,11.121,0,0,1,1.631,3.226,2.19,2.19,0,0,0,1.417,1.429l1.938.621a1.22,1.22,0,0,1,.85,1.165v3.214a1.22,1.22,0,0,1-.85,1.165l-3.123,1a2.128,2.128,0,0,0-1.191.967,13.727,13.727,0,0,1-5.734,5.216,1.079,1.079,0,0,0-.566.761l-1,5.3a.31.31,0,0,1-.3.252H29.926a.31.31,0,0,1-.3-.252l-.554-2.927a1.082,1.082,0,0,0-1.231-.87,28.79,28.79,0,0,1-4.29.319,27.458,27.458,0,0,1-3.156-.178,1.091,1.091,0,0,0-1.193.875l-.526,2.781a.31.31,0,0,1-.3.252H15.114a.31.31,0,0,1-.3-.254l-.963-5a1.081,1.081,0,0,0-.556-.752A12.163,12.163,0,0,1,6.574,32.773a13.24,13.24,0,0,1,1.665-6.731,12.016,12.016,0,0,1,4.476-4.37.689.689,0,0,0-.69-1.192,13.109,13.109,0,0,0-6.652,9.793h0l-.2-.019a3.429,3.429,0,0,0-.252-1.374,2.821,2.821,0,0,0-2.091-1.826,1.9,1.9,0,0,0-1.792.8A1.814,1.814,0,0,0,.694,29.83c.347.715,1.239,1.22,2.718,1.538q-.061.091-.134.184A3.379,3.379,0,0,1,.705,32.914.723.723,0,0,0,0,33.633v0a.721.721,0,0,0,.691.719q.074,0,.155,0a4.473,4.473,0,0,0,3.509-1.948,3.928,3.928,0,0,0,.5-.812q.195.022.374.038h0c-.023.373-.037.752-.037,1.137a14.193,14.193,0,0,0,2.032,7.6,13.924,13.924,0,0,0,5.292,4.883l.936,4.863a1.688,1.688,0,0,0,1.657,1.373h3.252a1.688,1.688,0,0,0,1.657-1.373l.476-2.515a29.025,29.025,0,0,0,3.047.158,30.257,30.257,0,0,0,4.22-.294l.5,2.651a1.688,1.688,0,0,0,1.657,1.373h3.252a1.688,1.688,0,0,0,1.657-1.373l.974-5.157a15.016,15.016,0,0,0,6.165-5.682.753.753,0,0,1,.419-.345l3.123-1a2.593,2.593,0,0,0,1.808-2.477V32.244A2.593,2.593,0,0,0,45.516,29.767Zm-6.578-8.185c-.265,2.267-.976,4.206-1.691,4.611a4.214,4.214,0,0,1-4.095-.481c-1.409-1.031-1.878-2.885-1.357-5.361h0a.831.831,0,0,1,.473-.575c3.448-1.578,5.436-2.095,6.174-2.095a.72.72,0,0,1,.25.033C38.915,17.95,39.206,19.294,38.938,21.582Zm-37,7.647c-.071-.147.1-.405.2-.546a.549.549,0,0,1,.442-.269.517.517,0,0,1,.069,0,1.5,1.5,0,0,1,1,.975,2.091,2.091,0,0,1,.144.65C2.835,29.845,2.094,29.56,1.934,29.229Z" transform="translate(0 -5.115)" fill="#fd6565"/>
      </g>
    </g>
    <g id="Group_51" data-name="Group 51" transform="translate(18.749 9.537)">
      <g id="Group_50" data-name="Group 50" transform="translate(0 0)">
        <path id="Path_72" data-name="Path 72" d="M206.087,57.148V54.683c.85.061,1.166.449,1.457.449.364,0,.534-.461.534-.692,0-.595-1.166-.85-1.991-.874v-.328c0-.146-.182-.279-.364-.279a.32.32,0,0,0-.352.279v.352a2.254,2.254,0,0,0-2.307,2.258c0,1.554,1.214,1.991,2.307,2.38v2.853c-1.238-.1-1.566-.947-1.967-.947-.3,0-.558.4-.558.692,0,.595,1.02,1.408,2.525,1.433h0v.376a.32.32,0,0,0,.352.279c.182,0,.364-.134.364-.279v-.413a2.352,2.352,0,0,0,2.21-2.5C208.3,58.071,207.143,57.536,206.087,57.148Zm-.644-.231c-.643-.243-1.166-.5-1.166-1.19,0-.631.486-.935,1.166-1.02Zm.571,4.14V58.5a1.42,1.42,0,0,1,1.068,1.36A1.155,1.155,0,0,1,206.014,61.057Z" transform="translate(-202.845 -52.959)" fill="#fd6565"/>
      </g>
    </g>
  </g>
</svg>
