<svg xmlns="http://www.w3.org/2000/svg" width="26.579" height="40.754" viewBox="0 0 26.579 40.754">
  <g id="watch_1_" data-name="watch (1)" transform="translate(-85.333)">
    <g id="Group_119" data-name="Group 119" transform="translate(88.877 10.631)">
      <g id="Group_118" data-name="Group 118">
        <path id="Path_105" data-name="Path 105" d="M137.745,128a9.746,9.746,0,1,0,9.745,9.746A9.757,9.757,0,0,0,137.745,128Zm0,17.719a7.974,7.974,0,1,1,7.974-7.974A7.983,7.983,0,0,1,137.745,145.719Z" transform="translate(-128 -128)" fill="#fd6565"/>
      </g>
    </g>
    <g id="Group_121" data-name="Group 121" transform="translate(85.333)">
      <g id="Group_120" data-name="Group 120">
        <path id="Path_106" data-name="Path 106" d="M106.426,9.625,104.81.728A.888.888,0,0,0,103.938,0H93.307a.888.888,0,0,0-.872.728l-1.616,8.9a13.28,13.28,0,0,0,0,21.5l1.616,8.9a.888.888,0,0,0,.872.728h10.632a.888.888,0,0,0,.872-.728l1.616-8.9a13.28,13.28,0,0,0,0-21.5ZM105.12,29.883a.888.888,0,0,0-.372.572L103.2,38.982H94.046L92.5,30.456a.893.893,0,0,0-.372-.572,11.511,11.511,0,0,1,0-19.013A.888.888,0,0,0,92.5,10.3l1.549-8.526H103.2l1.549,8.526a.893.893,0,0,0,.372.572,11.511,11.511,0,0,1,0,19.013Z" transform="translate(-85.333)" fill="#fd6565"/>
      </g>
    </g>
    <g id="Group_123" data-name="Group 123" transform="translate(97.736 14.175)">
      <g id="Group_122" data-name="Group 122">
        <path id="Path_107" data-name="Path 107" d="M239.723,179.786l-3.285-3.285v-4.949a.886.886,0,1,0-1.772,0v5.316a.892.892,0,0,0,.259.627l3.544,3.544a.886.886,0,0,0,1.255-1.253Z" transform="translate(-234.666 -170.666)" fill="#fd6565"/>
      </g>
    </g>
  </g>
</svg>
