<svg id="check" xmlns="http://www.w3.org/2000/svg" width="41.5" height="31.783" viewBox="0 0 41.5 31.783">
  <path id="Path_127" data-name="Path 127" d="M34.711,68.458h-22.4A4.009,4.009,0,0,0,8.3,72.467v22.4a4.009,4.009,0,0,0,4.009,4.009h22.4a4.009,4.009,0,0,0,4.009-4.009v-22.4A4.009,4.009,0,0,0,34.711,68.458Z" transform="translate(-7.627 -67.768)" fill="#b4bbcc"/>
  <path id="Path_128" data-name="Path 128" d="M78.9,118.536H60.161a1.782,1.782,0,0,0-1.782,1.782v18.737a1.782,1.782,0,0,0,1.782,1.782H78.9a1.782,1.782,0,0,0,1.782-1.782V120.318A1.782,1.782,0,0,0,78.9,118.536Z" transform="translate(-53.647 -113.787)" fill="#fff"/>
  <path id="Path_129" data-name="Path 129" d="M60.175,122.115a1.782,1.782,0,0,1,1.782-1.782H80.681v-.013a1.782,1.782,0,0,0-1.782-1.782H60.161a1.782,1.782,0,0,0-1.782,1.782v18.737a1.782,1.782,0,0,0,1.782,1.782h.013Z" transform="translate(-53.647 -113.788)" opacity="0.1"/>
  <path id="Path_130" data-name="Path 130" d="M102.083,92.5a2.79,2.79,0,0,1-1.948-.792l-9.159-8.928a2.791,2.791,0,0,1,3.9-4l6.7,6.527A63.64,63.64,0,0,1,119.36,68.682a2.791,2.791,0,0,1,3.009,4.7c-12.785,8.185-17.763,17.53-17.812,17.623a2.791,2.791,0,0,1-2.474,1.5Z" transform="translate(-82.828 -67.568)" fill="#a5eb78"/>
  <path id="Path_131" data-name="Path 131" d="M40.954,61.538a3.468,3.468,0,0,0-4.785-1.05c-1.615,1.034-3.118,2.087-4.514,3.141a4.689,4.689,0,0,0-4.571-3.671H11.846a.673.673,0,1,0,0,1.347H27.085a3.34,3.34,0,0,1,3.335,3.275q-1.437,1.135-2.712,2.257v-.364a2.459,2.459,0,0,0-2.456-2.456h-3.44a.673.673,0,1,0,0,1.347h3.44a1.11,1.11,0,0,1,1.109,1.109v1.577a59.427,59.427,0,0,0-7.712,8.608l-6.134-5.979a3.464,3.464,0,0,0-4.836,4.961l3.43,3.343a.677.677,0,0,0,.472.191.684.684,0,0,0,.48-.2.673.673,0,0,0-.012-.952l-3.43-3.343a2.117,2.117,0,0,1,2.956-3.032l6.7,6.527a.673.673,0,0,0,1.021-.1q.194-.277.393-.551A63.786,63.786,0,0,1,36.9,61.623a2.117,2.117,0,0,1,2.283,3.566,64.273,64.273,0,0,0-8.522,6.5l-.016.012c-1.583,1.435-2.946,2.822-4.106,4.1-.892.987-1.76,2.017-2.576,3.075a32.909,32.909,0,0,0-2.811,4.158l-.007.013,0,.006,0,.009a2.117,2.117,0,0,1-3.355.536l-3.795-3.7a.673.673,0,0,0-.94.964l3.795,3.7a3.467,3.467,0,0,0,5.488-.876,36.356,36.356,0,0,1,4.035-5.631v7.15a1.11,1.11,0,0,1-1.109,1.109H6.515a1.11,1.11,0,0,1-1.109-1.109V66.474a1.11,1.11,0,0,1,1.109-1.109h12.6a.673.673,0,1,0,0-1.347H6.515a2.459,2.459,0,0,0-2.456,2.456V85.211a2.459,2.459,0,0,0,2.456,2.456H25.252a2.459,2.459,0,0,0,2.456-2.456V76.527c.8-.882,1.707-1.813,2.712-2.774v13.29a3.339,3.339,0,0,1-3.335,3.335H4.682a3.339,3.339,0,0,1-3.335-3.336v-22.4a3.339,3.339,0,0,1,3.335-3.335h4.47a.673.673,0,0,0,0-1.347H4.682A4.688,4.688,0,0,0,0,64.641v22.4a4.688,4.688,0,0,0,4.682,4.682h22.4a4.688,4.688,0,0,0,4.682-4.682V72.5A62.9,62.9,0,0,1,39.9,66.323,3.468,3.468,0,0,0,40.954,61.538Z" transform="translate(0 -59.943)"/>
</svg>
