<?xml version="1.0" encoding="utf-8"?>
<!-- Generator: Adobe Illustrator 19.2.1, SVG Export Plug-In . SVG Version: 6.00 Build 0)  -->
<svg version="1.1" id="Layer_1" xmlns="http://www.w3.org/2000/svg" xmlns:xlink="http://www.w3.org/1999/xlink" x="0px" y="0px"
	 viewBox="0 0 259.1 61.3" style="enable-background:new 0 0 259.1 61.3;" xml:space="preserve">
<style type="text/css">
	.st0{clip-path:url(#SVGID_2_);}
	.st1{fill:url(#Rectangle_1_1_);}
	.st2{clip-path:url(#SVGID_4_);}
	.st3{fill:url(#Rectangle_2_1_);}
	.st4{clip-path:url(#SVGID_6_);}
	.st5{fill:url(#Rectangle_3_1_);}
	.st6{clip-path:url(#SVGID_8_);}
	.st7{fill:url(#Rectangle_4_1_);}
	.st8{enable-background:new    ;}
	.st9{fill:#4C5A69;}
	.st10{fill:#EF402E;}
</style>
<g id="Logo" transform="translate(-1398.198 -2058.308)">
	<g id="Group_9" transform="translate(1398.198 2058.308)">
		<g id="Group_2" transform="translate(0 24.555)">
			<g>
				<defs>
					<path id="SVGID_1_" d="M12.5,4.5C6.7,2.9-0.4,4.5,0,12.2c3.5-3.8,10.7-0.2,14.9,2.2l15.4,8.9L42,3.1C28.1-0.5,14.5-2,12.5,4.5"
						/>
				</defs>
				<clipPath id="SVGID_2_">
					<use xlink:href="#SVGID_1_"  style="overflow:visible;"/>
				</clipPath>
				<g id="Group_1" class="st0">
					
						<linearGradient id="Rectangle_1_1_" gradientUnits="userSpaceOnUse" x1="-170.5291" y1="388.1088" x2="-169.5951" y2="390.9238" gradientTransform="matrix(42.47 0 0 -25.304 7256.8311 9842.7852)">
						<stop  offset="0" style="stop-color:#EE413B"/>
						<stop  offset="1" style="stop-color:#F28E62"/>
					</linearGradient>
					<rect id="Rectangle_1" x="-0.4" y="-2" class="st1" width="42.5" height="25.3"/>
				</g>
			</g>
		</g>
		<g id="Group_4" transform="translate(55.412)">
			<g>
				<defs>
					<path id="SVGID_3_" d="M42,0.8l2.8,1.6l-29.5,51C12.1,59.2,7.3,62.3,0,61L33.4,3.1C35.1,0.1,39-0.9,42,0.8"/>
				</defs>
				<clipPath id="SVGID_4_">
					<use xlink:href="#SVGID_3_"  style="overflow:visible;"/>
				</clipPath>
				<g id="Group_3" class="st2">
					
						<linearGradient id="Rectangle_2_1_" gradientUnits="userSpaceOnUse" x1="-226.4962" y1="421.1194" x2="-225.6112" y2="422.2464" gradientTransform="matrix(44.851 0 0 -63.176 10159.209 26674.4336)">
						<stop  offset="0" style="stop-color:#EE413B"/>
						<stop  offset="1" style="stop-color:#F28E62"/>
					</linearGradient>
					<rect id="Rectangle_2" x="0" y="-0.9" class="st3" width="44.9" height="63.2"/>
				</g>
			</g>
		</g>
		<g id="Group_6" transform="translate(43.913 4.237)">
			<g>
				<defs>
					<path id="SVGID_5_" d="M34.8,16.4L11.5,56.8L34.8,16.4z M36.5,0.8l2.8,1.6L8.5,56c-3-1-5.3-2.7-8.5-4.5L27.9,3.1
						C29.6,0.1,33.5-0.9,36.5,0.8L36.5,0.8z"/>
				</defs>
				<clipPath id="SVGID_6_">
					<use xlink:href="#SVGID_5_"  style="overflow:visible;"/>
				</clipPath>
				<g id="Group_5" class="st4">
					
						<linearGradient id="Rectangle_3_1_" gradientUnits="userSpaceOnUse" x1="-214.4167" y1="416.3951" x2="-213.4087" y2="417.631" gradientTransform="matrix(39.342 0 0 -57.651 8437.4746 24065.4668)">
						<stop  offset="0" style="stop-color:#EE413B"/>
						<stop  offset="1" style="stop-color:#F28E62"/>
					</linearGradient>
					<rect id="Rectangle_3" x="0" y="-0.9" class="st5" width="39.3" height="57.7"/>
				</g>
			</g>
		</g>
		<g id="Group_8" transform="translate(32.993 8.474)">
			<g>
				<defs>
					<path id="SVGID_7_" d="M30.4,0.8l2.8,1.6l-25,43.2L0,40.9L21.8,3.1C23.5,0.1,27.4-0.9,30.4,0.8"/>
				</defs>
				<clipPath id="SVGID_8_">
					<use xlink:href="#SVGID_7_"  style="overflow:visible;"/>
				</clipPath>
				<g id="Group_7" class="st6">
					
						<linearGradient id="Rectangle_4_1_" gradientUnits="userSpaceOnUse" x1="-202.6826" y1="410.6352" x2="-201.4896" y2="412.1642" gradientTransform="matrix(33.256 0 0 -46.597 6742.0151 19183.7598)">
						<stop  offset="0" style="stop-color:#EE413B"/>
						<stop  offset="1" style="stop-color:#F28E62"/>
					</linearGradient>
					<rect id="Rectangle_4" x="0" y="-0.9" class="st7" width="33.3" height="46.6"/>
				</g>
			</g>
		</g>
	</g>
	<g class="st8">
		<path class="st9" d="M1506.8,2093h-6.9l0.3-0.8h6.9L1506.8,2093z M1500.6,2091.2l0.3-1h6.9l-0.3,1H1500.6z M1501.3,2089.2l0.4-1.2
			h6.9l-0.4,1.2H1501.3z M1502,2087.3l0.5-1.4h6.9l-0.5,1.4H1502z M1502.6,2085.4l0.5-1.6h6.9l-0.5,1.6H1502.6z M1503.3,2083.4
			l0.6-1.8h6.9l-0.6,1.8H1503.3z M1514.6,2070.4l4.4,11.1h-7.9l-0.2-0.4l-0.1,0.4h-6.9l3.8-11.1H1514.6z M1519.1,2081.6l0.4,0.9
			l1-0.9h7.8l-2,1.8h-14.4l-0.7-1.8H1519.1z M1512.7,2085.4l-0.6-1.6h13.7l-1.7,1.6H1512.7z M1513.5,2087.3l-0.6-1.4h10.5l-1.5,1.4
			H1513.5z M1514.3,2089.2l-0.5-1.2h7.3l-1.3,1.2H1514.3z M1515.1,2091.2l-0.5-1h4.1l-1.1,1H1515.1z M1520.6,2081.5l12-11.1h6.8
			l-3.8,11.1h-6.9l0.1-0.4l-0.4,0.4H1520.6z M1531.5,2093h-6.9l0.3-0.8h6.9L1531.5,2093z M1525.3,2091.2l0.3-1h6.9l-0.3,1H1525.3z
			 M1526,2089.2l0.4-1.2h6.9l-0.4,1.2H1526z M1526.7,2087.3l0.5-1.4h6.9l-0.5,1.4H1526.7z M1527.3,2085.4l0.5-1.6h6.9l-0.5,1.6
			H1527.3z M1528,2083.4l0.6-1.8h6.9l-0.6,1.8H1528z"/>
		<path class="st9" d="M1541.8,2093h-6.9l0.3-0.8h6.9L1541.8,2093z M1535.6,2091.2l0.3-1h6.9l-0.3,1H1535.6z M1536.3,2089.2l0.4-1.2
			h6.9l-0.4,1.2H1536.3z M1536.9,2087.3l0.5-1.4h6.9l-0.5,1.4H1536.9z M1544.9,2084.2l-0.4,1.1h-6.9l0.5-1.6h25.9l-0.2,0.4H1544.9z
			 M1538.3,2083.4l0.6-1.8h25.9l-0.6,1.8H1538.3z M1565.7,2079.1l-0.8,2.4h-25.9l1.6-4.6c0.8-2.2,1.9-3.8,3.6-4.9
			c1.6-1.1,3.9-1.6,6.7-1.6h17.9l-1.8,5.1h-15.1c-1.6,0-2.8,0.3-3.5,0.9c-0.7,0.6-1.2,1.4-1.6,2.6l0,0H1565.7z"/>
	</g>
	<g class="st8">
		<path class="st10" d="M1590.6,2093h-26.3l0.3-0.8h26.3L1590.6,2093z M1565,2091.2l0.3-1h26.3l-0.3,1H1565z M1566,2088.2l0.1-0.2
			h26.3l-0.4,1.2h-26.3L1566,2088.2z M1566.4,2087.3c0.3-0.6,0.6-1.1,0.9-1.4h11.1l-2.8,1.1l-0.1,0.3H1566.4z M1567.6,2085.4
			c0.3-0.3,0.6-0.6,0.9-0.9c0.3-0.3,0.6-0.5,1-0.7h14l-3.8,1.6H1567.6z M1570.2,2083.4c-0.1,0,0,0,0.2-0.1l4.1-1.7h14.2l-4.3,1.8
			H1570.2z M1574.9,2081.5l11.7-4.8c0.3-0.1,0.6-0.3,0.7-0.6l0,0c0.1-0.3-0.1-0.5-0.6-0.5h-16.4l1.8-5.1h20.7c1.5,0,2.6,0.4,3.3,1.1
			c0.7,0.7,1,1.8,0.8,3.1c0,0.1-0.1,0.1-0.1,0.2c0,0.1-0.1,0.2-0.1,0.4c-0.2,0.5-0.4,1-0.7,1.5c-0.3,0.5-0.7,1-1.1,1.4
			c-0.4,0.5-0.8,0.9-1.3,1.2c-0.5,0.4-0.9,0.6-1.3,0.8l-3.3,1.3H1574.9z"/>
		<path class="st10" d="M1616.1,2084.2h-19l0.2-0.4h25.9l-0.5,1.6h-6.9L1616.1,2084.2z M1597.4,2083.4l0.6-1.8h25.9l-0.6,1.8H1597.4
			z M1608.7,2070.4l-3,8.7h12.2l3-8.7h6.9l-3.8,11.1H1598l3.8-11.1H1608.7z M1619.9,2093h-6.9l0.3-0.8h6.9L1619.9,2093z
			 M1613.7,2091.2l0.3-1h6.9l-0.3,1H1613.7z M1614.4,2089.2l0.4-1.2h6.9l-0.4,1.2H1614.4z M1615.1,2087.3l0.5-1.4h6.9l-0.5,1.4
			H1615.1z"/>
		<path class="st10" d="M1630.3,2093h-6.9l0.3-0.8h6.9L1630.3,2093z M1624.1,2091.2l0.3-1h6.9l-0.3,1H1624.1z M1624.7,2089.2
			l0.4-1.2h6.9l-0.4,1.2H1624.7z M1625.4,2087.3l0.5-1.4h6.9l-0.5,1.4H1625.4z M1633.3,2084.2l-0.4,1.1h-6.9l0.5-1.6h25.9l-0.5,1.6
			h-6.9l0.4-1.1H1633.3z M1626.7,2083.4l0.6-1.8h25.9l-0.6,1.8H1626.7z M1638.1,2070.4l-3,8.7h12.2l3-8.7h6.9l-3.8,11.1h-25.9
			l3.8-11.1H1638.1z M1649.3,2093h-6.9l0.3-0.8h6.9L1649.3,2093z M1643.1,2091.2l0.3-1h6.9l-0.3,1H1643.1z M1643.8,2089.2l0.4-1.2
			h6.9l-0.4,1.2H1643.8z M1644.4,2087.3l0.5-1.4h6.9l-0.5,1.4H1644.4z"/>
	</g>
	<g class="st8">
		<path class="st9" d="M1505.4,2104l-2.4,11.4h-1.7l2.4-11.4h-4.3l0.3-1.4h10.4l-0.3,1.4H1505.4z"/>
		<path class="st9" d="M1510,2107.6c0.2-0.4,0.5-0.7,0.9-0.9c0.4-0.3,0.8-0.4,1.2-0.6c0.5-0.1,0.9-0.2,1.4-0.2c0.5,0,0.9,0,1.3,0.1
			c0.4,0.1,0.8,0.2,1.1,0.4s0.6,0.4,0.7,0.7s0.3,0.7,0.3,1.2c0,0.3,0,0.6-0.1,0.9c-0.1,0.3-0.1,0.6-0.2,0.8l-0.6,2.5
			c0,0.2-0.1,0.4-0.2,0.6s-0.1,0.5-0.1,0.7c0,0.2,0,0.4,0.1,0.5s0.2,0.1,0.3,0.1c0.1,0,0.2,0,0.2,0c0.1,0,0.2-0.1,0.2-0.1l-0.2,1.1
			c-0.1,0-0.3,0.1-0.5,0.1c-0.2,0-0.3,0.1-0.5,0.1c-0.4,0-0.7-0.1-1-0.3c-0.2-0.2-0.3-0.5-0.3-1l0,0c-0.3,0.4-0.7,0.8-1.2,1
			c-0.5,0.2-1.1,0.3-1.9,0.3c-0.4,0-0.8,0-1.1-0.1c-0.3-0.1-0.6-0.2-0.9-0.5c-0.3-0.2-0.5-0.5-0.6-0.8s-0.2-0.7-0.2-1.2
			c0-0.7,0.1-1.2,0.4-1.6c0.3-0.4,0.7-0.7,1.1-0.9s1-0.3,1.5-0.4c0.6-0.1,1.1-0.1,1.6-0.2c0.4,0,0.8-0.1,1.1-0.1
			c0.3,0,0.5-0.1,0.7-0.2s0.3-0.2,0.4-0.4c0.1-0.2,0.1-0.4,0.1-0.7c0-0.3-0.1-0.5-0.2-0.6c-0.1-0.2-0.3-0.3-0.5-0.4
			s-0.4-0.2-0.6-0.2c-0.2,0-0.4-0.1-0.6-0.1c-0.3,0-0.6,0-0.9,0.1c-0.3,0.1-0.5,0.2-0.8,0.3c-0.2,0.1-0.4,0.3-0.6,0.5
			c-0.2,0.2-0.3,0.5-0.3,0.8h-1.5C1509.6,2108.4,1509.8,2108,1510,2107.6z M1510.5,2114c0.3,0.2,0.7,0.3,1.2,0.3
			c1.2,0,2.1-0.4,2.6-1.2c0.3-0.3,0.4-0.7,0.5-1.1c0.1-0.4,0.2-0.8,0.3-1.3h0c-0.2,0.2-0.5,0.3-0.8,0.3s-0.7,0.1-1.1,0.2
			c-0.4,0-0.7,0.1-1.1,0.1c-0.4,0.1-0.7,0.1-1,0.3c-0.3,0.1-0.5,0.3-0.7,0.5c-0.2,0.2-0.3,0.5-0.3,0.9
			C1509.9,2113.5,1510.1,2113.8,1510.5,2114z M1514,2104.9l-1.8-2.6h1.8l1.2,2.6H1514z"/>
		<path class="st9" d="M1521.3,2106.2l-1.9,9.3h-1.5l1.9-9.3H1521.3z M1520.1,2104.5l0.4-1.9h1.5l-0.4,1.9H1520.1z"/>
		<path class="st9" d="M1533.9,2107.8c-0.3-0.3-0.8-0.5-1.4-0.5c-0.6,0-1.1,0.1-1.6,0.4c-0.5,0.3-0.8,0.6-1.1,1s-0.5,0.9-0.7,1.4
			c-0.2,0.5-0.2,1-0.2,1.5c0,0.4,0,0.7,0.1,1s0.2,0.6,0.4,0.8c0.2,0.2,0.4,0.4,0.7,0.6s0.7,0.2,1.1,0.2c0.7,0,1.2-0.2,1.7-0.5
			c0.5-0.3,0.8-0.8,1-1.4h1.5c-0.3,1.1-0.8,1.9-1.5,2.4c-0.7,0.6-1.6,0.8-2.7,0.8c-1.3,0-2.2-0.3-2.9-1s-1-1.7-1-3
			c0-0.7,0.1-1.5,0.3-2.1s0.6-1.3,1-1.8c0.4-0.5,1-1,1.6-1.3c0.6-0.3,1.4-0.5,2.2-0.5c1.1,0,1.9,0.3,2.5,0.8s0.9,1.3,1,2.4h-1.5
			C1534.4,2108.5,1534.2,2108.1,1533.9,2107.8z"/>
		<path class="st9" d="M1540.8,2102.6l-1.1,4.9l0,0c0.4-0.5,0.9-0.9,1.5-1.2c0.6-0.3,1.2-0.4,1.9-0.4c0.9,0,1.5,0.2,2,0.6
			s0.6,1,0.6,1.8c0,0.2,0,0.5-0.1,0.8c0,0.3-0.1,0.7-0.2,1l-1.1,5.3h-1.5l1.2-5.4c0-0.1,0-0.2,0.1-0.3c0-0.1,0-0.3,0.1-0.4
			c0-0.1,0-0.3,0.1-0.4c0-0.1,0-0.2,0-0.3c0-0.4-0.2-0.8-0.5-1c-0.3-0.2-0.7-0.3-1.2-0.3c-0.4,0-0.8,0.1-1.3,0.3
			c-0.4,0.2-0.8,0.5-1.1,0.8c-0.3,0.2-0.5,0.5-0.6,0.9s-0.3,0.7-0.4,1.1l-1.1,5.1h-1.5l2.7-12.9H1540.8z"/>
		<path class="st9" d="M1548.5,2106.2h1.5l-1.9,9.3h-1.5L1548.5,2106.2z M1552.8,2102.3l-2.4,2.6h-1.3l1.7-2.6H1552.8z"/>
		<path class="st9" d="M1554,2106.2l-0.3,1.4h0c0.4-0.5,0.9-0.9,1.5-1.2c0.6-0.3,1.2-0.4,1.9-0.4c0.9,0,1.5,0.2,2,0.6s0.6,1,0.6,1.8
			c0,0.2,0,0.5-0.1,0.8s-0.1,0.7-0.2,1l-1.1,5.3h-1.5l1.2-5.4c0-0.1,0-0.2,0.1-0.3c0-0.1,0-0.3,0.1-0.4c0-0.1,0-0.3,0.1-0.4
			c0-0.1,0-0.2,0-0.3c0-0.4-0.2-0.8-0.5-1c-0.3-0.2-0.7-0.3-1.2-0.3c-0.4,0-0.8,0.1-1.3,0.3c-0.4,0.2-0.8,0.5-1.1,0.8
			c-0.3,0.2-0.5,0.5-0.6,0.9s-0.3,0.7-0.4,1.1l-1.1,5.1h-1.5l1.9-9.3H1554z"/>
		<path class="st9" d="M1564.8,2102.6l-1.1,4.9l0,0c0.4-0.5,0.9-0.9,1.5-1.2c0.6-0.3,1.2-0.4,1.9-0.4c0.9,0,1.5,0.2,2,0.6
			s0.6,1,0.6,1.8c0,0.2,0,0.5-0.1,0.8c0,0.3-0.1,0.7-0.2,1l-1.1,5.3h-1.5l1.2-5.4c0-0.1,0-0.2,0.1-0.3c0-0.1,0-0.3,0.1-0.4
			c0-0.1,0-0.3,0.1-0.4c0-0.1,0-0.2,0-0.3c0-0.4-0.2-0.8-0.5-1c-0.3-0.2-0.7-0.3-1.2-0.3c-0.4,0-0.8,0.1-1.3,0.3
			c-0.4,0.2-0.8,0.5-1.1,0.8c-0.3,0.2-0.5,0.5-0.6,0.9s-0.3,0.7-0.4,1.1l-1.1,5.1h-1.5l2.7-12.9H1564.8z"/>
		<path class="st9" d="M1578.9,2106.2l-0.3,1.4l0,0c0.4-0.5,0.9-0.9,1.4-1.2c0.6-0.3,1.2-0.4,1.8-0.4c0.6,0,1.1,0.1,1.5,0.4
			c0.4,0.3,0.7,0.7,0.8,1.3c0.4-0.5,0.8-0.9,1.4-1.2c0.6-0.3,1.2-0.5,1.8-0.5c0.3,0,0.6,0,1,0.1s0.6,0.2,0.8,0.4
			c0.2,0.2,0.4,0.4,0.6,0.6c0.1,0.3,0.2,0.6,0.2,1c0,0.3,0,0.6-0.1,0.9c-0.1,0.3-0.1,0.7-0.2,0.9l-1.2,5.6h-1.5l1.3-5.9
			c0-0.1,0.1-0.3,0.1-0.5c0-0.2,0-0.4,0-0.5c0-0.4-0.1-0.7-0.4-0.9c-0.3-0.2-0.6-0.4-1-0.4c-0.2,0-0.4,0-0.7,0.1
			c-0.2,0.1-0.4,0.2-0.6,0.3c-0.2,0.1-0.4,0.2-0.6,0.4s-0.3,0.3-0.5,0.5c-0.3,0.3-0.4,0.6-0.6,1c-0.1,0.4-0.2,0.7-0.3,1.1l-1,4.8
			h-1.5l1.1-5.3c0.1-0.4,0.2-0.7,0.2-1c0.1-0.3,0.1-0.5,0.1-0.6c0-0.4-0.1-0.7-0.3-0.9c-0.2-0.2-0.5-0.3-1-0.3s-0.8,0.1-1.3,0.4
			c-0.4,0.2-0.8,0.5-1,0.8c-0.3,0.3-0.5,0.6-0.7,0.9c-0.1,0.3-0.2,0.7-0.3,1.2l-1,4.9h-1.5l2-9.3H1578.9z"/>
		<path class="st9" d="M1600.2,2110.6c-0.3,1.5-0.9,2.8-1.9,3.8s-2.2,1.5-3.8,1.5c-1.3,0-2.2-0.4-2.8-1.3c-0.6-0.9-0.7-2.1-0.4-3.5
			c0.3-1.6,1-2.8,2-3.8s2.2-1.4,3.5-1.4c1.2,0,2.2,0.4,2.8,1.2S1600.5,2109,1600.2,2110.6z M1598.5,2110.6c0.2-0.9,0.2-1.6,0-2.1
			c-0.3-0.9-0.9-1.3-2-1.3c-1,0-1.8,0.4-2.3,1.1c-0.6,0.7-1,1.6-1.2,2.7c-0.2,1-0.2,1.8,0.1,2.5c0.3,0.7,0.9,1,1.9,1
			c1,0,1.8-0.4,2.4-1.2C1598,2112.5,1598.3,2111.6,1598.5,2110.6z M1593.9,2116.6h1.6l-0.4,1.8h-1.6L1593.9,2116.6z"/>
		<path class="st9" d="M1604.4,2106.2l-1.9,9.3h-1.5l1.9-9.3H1604.4z M1603.2,2104.5l0.4-1.9h1.5l-0.4,1.9H1603.2z"/>
		<path class="st9" d="M1613.3,2106.2l-0.3,1.4h0c0.4-0.5,0.9-0.9,1.5-1.2c0.6-0.3,1.2-0.4,1.9-0.4c0.9,0,1.5,0.2,2,0.6
			s0.6,1,0.6,1.8c0,0.2,0,0.5-0.1,0.8c0,0.3-0.1,0.7-0.2,1l-1.1,5.3h-1.5l1.2-5.4c0-0.1,0-0.2,0.1-0.3c0-0.1,0-0.3,0.1-0.4
			c0-0.1,0-0.3,0.1-0.4c0-0.1,0-0.2,0-0.3c0-0.4-0.2-0.8-0.5-1c-0.3-0.2-0.7-0.3-1.2-0.3c-0.4,0-0.8,0.1-1.3,0.3
			c-0.4,0.2-0.8,0.5-1.1,0.8c-0.3,0.2-0.5,0.5-0.6,0.9s-0.3,0.7-0.4,1.1l-1.1,5.1h-1.5l1.9-9.3H1613.3z"/>
		<path class="st9" d="M1624.1,2102.6l-1.1,4.9l0,0c0.4-0.5,0.9-0.9,1.5-1.2c0.6-0.3,1.2-0.4,1.9-0.4c0.9,0,1.5,0.2,2,0.6
			s0.6,1,0.6,1.8c0,0.2,0,0.5-0.1,0.8c0,0.3-0.1,0.7-0.2,1l-1.1,5.3h-1.5l1.2-5.4c0-0.1,0-0.2,0.1-0.3c0-0.1,0-0.3,0.1-0.4
			c0-0.1,0-0.3,0.1-0.4c0-0.1,0-0.2,0-0.3c0-0.4-0.2-0.8-0.5-1c-0.3-0.2-0.7-0.3-1.2-0.3c-0.4,0-0.8,0.1-1.3,0.3
			c-0.4,0.2-0.8,0.5-1.1,0.8c-0.3,0.2-0.5,0.5-0.6,0.9s-0.3,0.7-0.4,1.1l-1.1,5.1h-1.5l2.7-12.9H1624.1z"/>
		<path class="st9" d="M1631.4,2107.6c0.2-0.4,0.5-0.7,0.9-0.9c0.4-0.3,0.8-0.4,1.2-0.6c0.5-0.1,0.9-0.2,1.4-0.2
			c0.5,0,0.9,0,1.3,0.1s0.8,0.2,1.1,0.4s0.6,0.4,0.7,0.7s0.3,0.7,0.3,1.2c0,0.3,0,0.6-0.1,0.9c-0.1,0.3-0.1,0.6-0.2,0.8l-0.6,2.5
			c0,0.2-0.1,0.4-0.2,0.6s-0.1,0.5-0.1,0.7c0,0.2,0,0.4,0.1,0.5s0.2,0.1,0.3,0.1c0.1,0,0.2,0,0.2,0c0.1,0,0.2-0.1,0.2-0.1l-0.2,1.1
			c-0.1,0-0.3,0.1-0.5,0.1c-0.2,0-0.3,0.1-0.5,0.1c-0.4,0-0.7-0.1-1-0.3c-0.2-0.2-0.3-0.5-0.3-1l0,0c-0.3,0.4-0.7,0.8-1.2,1
			c-0.5,0.2-1.1,0.3-1.9,0.3c-0.4,0-0.8,0-1.1-0.1c-0.3-0.1-0.6-0.2-0.9-0.5c-0.3-0.2-0.5-0.5-0.6-0.8s-0.2-0.7-0.2-1.2
			c0-0.7,0.1-1.2,0.4-1.6c0.3-0.4,0.7-0.7,1.1-0.9s1-0.3,1.5-0.4c0.6-0.1,1.1-0.1,1.6-0.2c0.4,0,0.8-0.1,1.1-0.1
			c0.3,0,0.5-0.1,0.7-0.2c0.2-0.1,0.3-0.2,0.4-0.4s0.1-0.4,0.1-0.7c0-0.3-0.1-0.5-0.2-0.6c-0.1-0.2-0.3-0.3-0.5-0.4
			s-0.4-0.2-0.6-0.2c-0.2,0-0.4-0.1-0.6-0.1c-0.3,0-0.6,0-0.9,0.1c-0.3,0.1-0.5,0.2-0.8,0.3c-0.2,0.1-0.4,0.3-0.6,0.5
			c-0.2,0.2-0.3,0.5-0.3,0.8h-1.5C1631,2108.4,1631.2,2108,1631.4,2107.6z M1631.8,2114c0.3,0.2,0.7,0.3,1.2,0.3
			c1.2,0,2.1-0.4,2.6-1.2c0.3-0.3,0.4-0.7,0.5-1.1c0.1-0.4,0.2-0.8,0.3-1.3h0c-0.2,0.2-0.5,0.3-0.8,0.3s-0.7,0.1-1.1,0.2
			c-0.4,0-0.7,0.1-1.1,0.1c-0.4,0.1-0.7,0.1-1,0.3c-0.3,0.1-0.5,0.3-0.7,0.5c-0.2,0.2-0.3,0.5-0.3,0.9
			C1631.3,2113.5,1631.5,2113.8,1631.8,2114z M1635.4,2104.9l-1.8-2.6h1.8l1.2,2.6H1635.4z"/>
	</g>
</g>
</svg>
