<?xml version="1.0" encoding="utf-8"?>
<!-- Generator: Adobe Illustrator 19.2.1, SVG Export Plug-In . SVG Version: 6.00 Build 0)  -->
<svg version="1.1" id="Layer_1" xmlns="http://www.w3.org/2000/svg" xmlns:xlink="http://www.w3.org/1999/xlink" x="0px" y="0px"
	 viewBox="0 0 153.2 36.2" style="enable-background:new 0 0 153.2 36.2;" xml:space="preserve">
<style type="text/css">
	.st0{clip-path:url(#SVGID_2_);}
	.st1{fill:url(#Rectangle_1_1_);}
	.st2{clip-path:url(#SVGID_4_);}
	.st3{fill:url(#Rectangle_2_1_);}
	.st4{clip-path:url(#SVGID_6_);}
	.st5{fill:url(#Rectangle_3_1_);}
	.st6{clip-path:url(#SVGID_8_);}
	.st7{fill:url(#Rectangle_4_1_);}
	.st8{enable-background:new    ;}
	.st9{fill:#4C5A69;}
	.st10{fill:#EF402E;}
</style>
<g id="Logo" transform="translate(-1398.198 -2058.308)">
	<g id="Group_9" transform="translate(1398.198 2058.308)">
		<g id="Group_2" transform="translate(0 14.52)">
			<g>
				<defs>
					<path id="SVGID_1_" d="M7.4,2.6C4,1.7-0.2,2.7,0,7.2C2.1,5,6.3,7.1,8.8,8.5l9.1,5.3l6.9-12C16.6-0.3,8.6-1.2,7.4,2.6"/>
				</defs>
				<clipPath id="SVGID_2_">
					<use xlink:href="#SVGID_1_"  style="overflow:visible;"/>
				</clipPath>
				<g id="Group_1" class="st0">
					
						<linearGradient id="Rectangle_1_1_" gradientUnits="userSpaceOnUse" x1="-218.5707" y1="374.3334" x2="-217.6367" y2="377.1484" gradientTransform="matrix(25.113 0 0 -14.963 5497.5161 5614.2075)">
						<stop  offset="0" style="stop-color:#EE413B"/>
						<stop  offset="1" style="stop-color:#F28E62"/>
					</linearGradient>
					<rect id="Rectangle_1" x="-0.2" y="-1.2" class="st1" width="25.1" height="15"/>
				</g>
			</g>
		</g>
		<g id="Group_4" transform="translate(32.766)">
			<g>
				<defs>
					<path id="SVGID_3_" d="M24.8,0.5l1.7,1L9.1,31.6C7.2,35,4.3,36.8,0,36.1L19.8,1.9C20.8,0.1,23.1-0.5,24.8,0.5"/>
				</defs>
				<clipPath id="SVGID_4_">
					<use xlink:href="#SVGID_3_"  style="overflow:visible;"/>
				</clipPath>
				<g id="Group_3" class="st2">
					
						<linearGradient id="Rectangle_2_1_" gradientUnits="userSpaceOnUse" x1="-252.1551" y1="403.7892" x2="-251.2701" y2="404.9162" gradientTransform="matrix(26.521 0 0 -37.357 6687.7749 15125.625)">
						<stop  offset="0" style="stop-color:#EE413B"/>
						<stop  offset="1" style="stop-color:#F28E62"/>
					</linearGradient>
					<rect id="Rectangle_2" x="0" y="-0.5" class="st3" width="26.5" height="37.4"/>
				</g>
			</g>
		</g>
		<g id="Group_6" transform="translate(25.967 2.506)">
			<g>
				<defs>
					<path id="SVGID_5_" d="M20.6,9.7L6.8,33.6L20.6,9.7z M21.6,0.5l1.7,1L5,33.1c-1.7-0.7-3.4-1.6-5-2.7L16.5,1.9
						C17.5,0.1,19.8-0.5,21.6,0.5L21.6,0.5z"/>
				</defs>
				<clipPath id="SVGID_6_">
					<use xlink:href="#SVGID_5_"  style="overflow:visible;"/>
				</clipPath>
				<g id="Group_5" class="st4">
					
						<linearGradient id="Rectangle_3_1_" gradientUnits="userSpaceOnUse" x1="-244.1183" y1="400.381" x2="-243.1103" y2="401.6169" gradientTransform="matrix(23.264 0 0 -34.09 5680.2881 13684.3926)">
						<stop  offset="0" style="stop-color:#EE413B"/>
						<stop  offset="1" style="stop-color:#F28E62"/>
					</linearGradient>
					<rect id="Rectangle_3" x="0" y="-0.5" class="st5" width="23.3" height="34.1"/>
				</g>
			</g>
		</g>
		<g id="Group_8" transform="translate(19.509 5.011)">
			<g>
				<defs>
					<path id="SVGID_7_" d="M18,0.5l1.7,1L4.9,27L0,24.2L12.9,1.9C13.9,0.1,16.2-0.5,18,0.5"/>
				</defs>
				<clipPath id="SVGID_8_">
					<use xlink:href="#SVGID_7_"  style="overflow:visible;"/>
				</clipPath>
				<g id="Group_7" class="st6">
					
						<linearGradient id="Rectangle_4_1_" gradientUnits="userSpaceOnUse" x1="-235.8667" y1="395.2277" x2="-234.6736" y2="396.7567" gradientTransform="matrix(19.665 0 0 -27.554 4639.2646 10919.3096)">
						<stop  offset="0" style="stop-color:#EE413B"/>
						<stop  offset="1" style="stop-color:#F28E62"/>
					</linearGradient>
					<rect id="Rectangle_4" x="0" y="-0.5" class="st7" width="19.7" height="27.6"/>
				</g>
			</g>
		</g>
	</g>
	<g class="st8">
		<path class="st9" d="M1462.4,2078.7h-4l0.2-0.5h4L1462.4,2078.7z M1458.8,2077.6l0.2-0.6h4l-0.2,0.6H1458.8z M1459.2,2076.4
			l0.2-0.7h4l-0.2,0.7H1459.2z M1459.6,2075.3l0.3-0.8h4l-0.3,0.8H1459.6z M1459.9,2074.2l0.3-0.9h4l-0.3,0.9H1459.9z M1460.3,2073
			l0.4-1h4l-0.4,1H1460.3z M1467,2065.4l2.6,6.5h-4.7l-0.1-0.2l-0.1,0.2h-4l2.3-6.5H1467z M1469.6,2072l0.2,0.5l0.6-0.5h4.6l-1.2,1
			h-8.5l-0.4-1H1469.6z M1465.9,2074.2l-0.4-0.9h8.1l-1,0.9H1465.9z M1466.4,2075.3l-0.3-0.8h6.2l-0.9,0.8H1466.4z M1466.8,2076.4
			l-0.3-0.7h4.3l-0.8,0.7H1466.8z M1467.3,2077.6l-0.3-0.6h2.4l-0.6,0.6H1467.3z M1470.5,2071.9l7.1-6.5h4l-2.3,6.5h-4l0.1-0.2
			l-0.2,0.2H1470.5z M1477,2078.7h-4l0.2-0.5h4L1477,2078.7z M1473.3,2077.6l0.2-0.6h4l-0.2,0.6H1473.3z M1473.7,2076.4l0.2-0.7h4
			l-0.2,0.7H1473.7z M1474.1,2075.3l0.3-0.8h4l-0.3,0.8H1474.1z M1474.5,2074.2l0.3-0.9h4l-0.3,0.9H1474.5z M1474.9,2073l0.4-1h4
			l-0.4,1H1474.9z"/>
		<path class="st9" d="M1483.1,2078.7h-4l0.2-0.5h4L1483.1,2078.7z M1479.4,2077.6l0.2-0.6h4l-0.2,0.6H1479.4z M1479.8,2076.4
			l0.2-0.7h4l-0.2,0.7H1479.8z M1480.2,2075.3l0.3-0.8h4l-0.3,0.8H1480.2z M1484.9,2073.5l-0.2,0.7h-4l0.3-0.9h15.3l-0.1,0.3H1484.9
			z M1481,2073l0.4-1h15.3l-0.4,1H1481z M1497.1,2070.5l-0.5,1.4h-15.3l0.9-2.7c0.4-1.3,1.2-2.3,2.1-2.9c1-0.6,2.3-0.9,4-0.9h10.5
			l-1.1,3h-8.9c-1,0-1.6,0.2-2,0.5s-0.7,0.9-0.9,1.5l0,0H1497.1z"/>
	</g>
	<g class="st8">
		<path class="st10" d="M1511.8,2078.7h-15.5l0.2-0.5h15.5L1511.8,2078.7z M1496.7,2077.6l0.2-0.6h15.5l-0.2,0.6H1496.7z
			 M1497.3,2075.9l0-0.1h15.5l-0.2,0.7h-15.5L1497.3,2075.9z M1497.5,2075.3c0.2-0.4,0.3-0.6,0.5-0.8h6.6l-1.6,0.7l0,0.2H1497.5z
			 M1498.3,2074.2c0.2-0.2,0.3-0.4,0.5-0.5c0.2-0.2,0.4-0.3,0.6-0.4h8.3l-2.3,0.9H1498.3z M1499.8,2073c0,0,0,0,0.1,0l2.4-1h8.4
			l-2.6,1H1499.8z M1502.5,2071.9l6.9-2.8c0.2-0.1,0.3-0.2,0.4-0.4l0,0c0.1-0.2-0.1-0.3-0.3-0.3h-9.7l1.1-3h12.2
			c0.9,0,1.5,0.2,1.9,0.6c0.4,0.4,0.6,1,0.5,1.8c0,0,0,0.1,0,0.1c0,0.1,0,0.1-0.1,0.2c-0.1,0.3-0.2,0.6-0.4,0.9
			c-0.2,0.3-0.4,0.6-0.6,0.9c-0.2,0.3-0.5,0.5-0.7,0.7c-0.3,0.2-0.5,0.4-0.8,0.5l-1.9,0.8H1502.5z"/>
		<path class="st10" d="M1526.9,2073.5h-11.2l0.1-0.3h15.3l-0.3,0.9h-4L1526.9,2073.5z M1515.8,2073l0.4-1h15.3l-0.4,1H1515.8z
			 M1522.5,2065.4l-1.8,5.1h7.2l1.8-5.1h4l-2.3,6.5h-15.3l2.3-6.5H1522.5z M1529.1,2078.7h-4l0.2-0.5h4L1529.1,2078.7z
			 M1525.5,2077.6l0.2-0.6h4l-0.2,0.6H1525.5z M1525.9,2076.4l0.2-0.7h4l-0.2,0.7H1525.9z M1526.3,2075.3l0.3-0.8h4l-0.3,0.8H1526.3
			z"/>
		<path class="st10" d="M1535.2,2078.7h-4l0.2-0.5h4L1535.2,2078.7z M1531.6,2077.6l0.2-0.6h4l-0.2,0.6H1531.6z M1532,2076.4
			l0.2-0.7h4l-0.2,0.7H1532z M1532.3,2075.3l0.3-0.8h4l-0.3,0.8H1532.3z M1537,2073.5l-0.2,0.7h-4l0.3-0.9h15.3l-0.3,0.9h-4l0.2-0.7
			H1537z M1533.1,2073l0.4-1h15.3l-0.4,1H1533.1z M1539.8,2065.4l-1.8,5.1h7.2l1.8-5.1h4l-2.3,6.5h-15.3l2.3-6.5H1539.8z
			 M1546.4,2078.7h-4l0.2-0.5h4L1546.4,2078.7z M1542.8,2077.6l0.2-0.6h4l-0.2,0.6H1542.8z M1543.2,2076.4l0.2-0.7h4l-0.2,0.7
			H1543.2z M1543.6,2075.3l0.3-0.8h4l-0.3,0.8H1543.6z"/>
	</g>
	<g class="st8">
		<path class="st9" d="M1461.3,2085.7l-1.3,6.3h-0.9l1.3-6.3h-2.4l0.2-0.8h5.8l-0.2,0.8H1461.3z"/>
		<path class="st9" d="M1463.9,2087.7c0.1-0.2,0.3-0.4,0.5-0.5c0.2-0.1,0.4-0.2,0.7-0.3c0.3-0.1,0.5-0.1,0.8-0.1
			c0.3,0,0.5,0,0.7,0.1c0.2,0,0.4,0.1,0.6,0.2c0.2,0.1,0.3,0.2,0.4,0.4s0.2,0.4,0.2,0.6c0,0.1,0,0.3-0.1,0.5s-0.1,0.3-0.1,0.5
			l-0.3,1.4c0,0.1,0,0.2-0.1,0.4c0,0.1-0.1,0.3-0.1,0.4s0,0.2,0.1,0.2c0,0,0.1,0.1,0.2,0.1c0,0,0.1,0,0.1,0s0.1,0,0.1,0l-0.1,0.6
			c-0.1,0-0.2,0.1-0.3,0.1c-0.1,0-0.2,0-0.3,0c-0.2,0-0.4-0.1-0.5-0.2s-0.2-0.3-0.1-0.5l0,0c-0.2,0.2-0.4,0.4-0.7,0.5
			s-0.6,0.2-1.1,0.2c-0.2,0-0.4,0-0.6-0.1c-0.2,0-0.4-0.1-0.5-0.2c-0.1-0.1-0.3-0.3-0.3-0.5c-0.1-0.2-0.1-0.4-0.1-0.7
			c0-0.4,0.1-0.7,0.2-0.9c0.2-0.2,0.4-0.4,0.6-0.5c0.3-0.1,0.5-0.2,0.8-0.2s0.6-0.1,0.9-0.1c0.2,0,0.4,0,0.6-0.1
			c0.2,0,0.3-0.1,0.4-0.1c0.1-0.1,0.2-0.1,0.2-0.2c0.1-0.1,0.1-0.2,0.1-0.4c0-0.1,0-0.3-0.1-0.3c-0.1-0.1-0.1-0.2-0.2-0.2
			s-0.2-0.1-0.3-0.1c-0.1,0-0.2,0-0.4,0c-0.2,0-0.3,0-0.5,0s-0.3,0.1-0.4,0.2c-0.1,0.1-0.2,0.2-0.3,0.3c-0.1,0.1-0.1,0.3-0.2,0.4
			h-0.9C1463.7,2088.2,1463.8,2087.9,1463.9,2087.7z M1464.1,2091.2c0.2,0.1,0.4,0.2,0.6,0.2c0.7,0,1.2-0.2,1.4-0.7
			c0.1-0.2,0.2-0.4,0.3-0.6c0-0.2,0.1-0.5,0.2-0.7h0c-0.1,0.1-0.3,0.1-0.5,0.2c-0.2,0-0.4,0.1-0.6,0.1c-0.2,0-0.4,0-0.6,0.1
			s-0.4,0.1-0.6,0.1c-0.2,0.1-0.3,0.2-0.4,0.3c-0.1,0.1-0.2,0.3-0.2,0.5C1463.9,2090.9,1464,2091.1,1464.1,2091.2z M1466.1,2086.2
			l-1-1.4h1l0.7,1.4H1466.1z"/>
		<path class="st9" d="M1470.2,2086.9l-1.1,5.2h-0.8l1.1-5.2H1470.2z M1469.5,2086l0.2-1h0.9l-0.2,1H1469.5z"/>
		<path class="st9" d="M1477.2,2087.8c-0.2-0.2-0.5-0.3-0.8-0.3c-0.3,0-0.6,0.1-0.9,0.2c-0.2,0.1-0.5,0.3-0.6,0.6
			c-0.2,0.2-0.3,0.5-0.4,0.8s-0.1,0.6-0.1,0.9c0,0.2,0,0.4,0.1,0.6s0.1,0.3,0.2,0.5c0.1,0.1,0.2,0.2,0.4,0.3
			c0.2,0.1,0.4,0.1,0.6,0.1c0.4,0,0.7-0.1,0.9-0.3s0.4-0.5,0.6-0.8h0.8c-0.2,0.6-0.4,1-0.8,1.3c-0.4,0.3-0.9,0.5-1.5,0.5
			c-0.7,0-1.2-0.2-1.6-0.6c-0.4-0.4-0.5-0.9-0.5-1.6c0-0.4,0.1-0.8,0.2-1.2c0.1-0.4,0.3-0.7,0.5-1c0.2-0.3,0.5-0.5,0.9-0.7
			c0.4-0.2,0.8-0.3,1.2-0.3c0.6,0,1.1,0.1,1.4,0.4s0.5,0.7,0.5,1.3h-0.8C1477.5,2088.2,1477.4,2088,1477.2,2087.8z"/>
		<path class="st9" d="M1481,2084.9l-0.6,2.7l0,0c0.2-0.3,0.5-0.5,0.8-0.7c0.3-0.1,0.7-0.2,1-0.2c0.5,0,0.8,0.1,1.1,0.3
			c0.2,0.2,0.4,0.5,0.4,1c0,0.1,0,0.3,0,0.4c0,0.2-0.1,0.4-0.1,0.6l-0.6,3h-0.9l0.7-3c0-0.1,0-0.1,0-0.2c0-0.1,0-0.1,0-0.2
			c0-0.1,0-0.2,0-0.2c0-0.1,0-0.1,0-0.2c0-0.2-0.1-0.4-0.3-0.5c-0.2-0.1-0.4-0.2-0.6-0.2c-0.2,0-0.5,0.1-0.7,0.2
			c-0.2,0.1-0.4,0.3-0.6,0.4c-0.2,0.1-0.3,0.3-0.4,0.5c-0.1,0.2-0.2,0.4-0.2,0.6l-0.6,2.9h-0.8l1.5-7.1H1481z"/>
		<path class="st9" d="M1485.3,2086.9h0.8l-1.1,5.2h-0.8L1485.3,2086.9z M1487.7,2084.7l-1.4,1.4h-0.7l0.9-1.4H1487.7z"/>
		<path class="st9" d="M1488.3,2086.9l-0.2,0.8h0c0.2-0.3,0.5-0.5,0.8-0.7c0.3-0.1,0.7-0.2,1-0.2c0.5,0,0.8,0.1,1.1,0.3
			c0.2,0.2,0.4,0.5,0.4,1c0,0.1,0,0.3,0,0.4c0,0.2-0.1,0.4-0.1,0.6l-0.6,3h-0.8l0.7-3c0-0.1,0-0.1,0-0.2s0-0.1,0-0.2
			c0-0.1,0-0.2,0-0.2c0-0.1,0-0.1,0-0.2c0-0.2-0.1-0.4-0.3-0.5c-0.2-0.1-0.4-0.2-0.6-0.2c-0.2,0-0.5,0.1-0.7,0.2s-0.4,0.3-0.6,0.4
			c-0.2,0.1-0.3,0.3-0.4,0.5c-0.1,0.2-0.2,0.4-0.2,0.6l-0.6,2.9h-0.8l1.1-5.2H1488.3z"/>
		<path class="st9" d="M1494.3,2084.9l-0.6,2.7l0,0c0.2-0.3,0.5-0.5,0.8-0.7c0.3-0.1,0.7-0.2,1-0.2c0.5,0,0.8,0.1,1.1,0.3
			c0.2,0.2,0.4,0.5,0.4,1c0,0.1,0,0.3,0,0.4c0,0.2-0.1,0.4-0.1,0.6l-0.6,3h-0.9l0.7-3c0-0.1,0-0.1,0-0.2c0-0.1,0-0.1,0-0.2
			c0-0.1,0-0.2,0-0.2c0-0.1,0-0.1,0-0.2c0-0.2-0.1-0.4-0.3-0.5c-0.2-0.1-0.4-0.2-0.6-0.2c-0.2,0-0.5,0.1-0.7,0.2
			c-0.2,0.1-0.4,0.3-0.6,0.4c-0.2,0.1-0.3,0.3-0.4,0.5c-0.1,0.2-0.2,0.4-0.2,0.6l-0.6,2.9h-0.8l1.5-7.1H1494.3z"/>
		<path class="st9" d="M1502.2,2086.9l-0.2,0.8l0,0c0.2-0.3,0.5-0.5,0.8-0.7s0.6-0.2,1-0.2c0.3,0,0.6,0.1,0.8,0.2
			c0.2,0.1,0.4,0.4,0.5,0.7c0.2-0.3,0.5-0.5,0.8-0.7s0.6-0.3,1-0.3c0.2,0,0.4,0,0.5,0.1c0.2,0,0.3,0.1,0.5,0.2
			c0.1,0.1,0.2,0.2,0.3,0.4s0.1,0.3,0.1,0.5c0,0.2,0,0.3-0.1,0.5s-0.1,0.4-0.1,0.5l-0.7,3.1h-0.8l0.7-3.3c0-0.1,0-0.2,0.1-0.3
			c0-0.1,0-0.2,0-0.3c0-0.2-0.1-0.4-0.2-0.5c-0.1-0.1-0.3-0.2-0.6-0.2c-0.1,0-0.2,0-0.4,0.1c-0.1,0-0.2,0.1-0.4,0.2
			c-0.1,0.1-0.2,0.1-0.3,0.2c-0.1,0.1-0.2,0.2-0.3,0.3c-0.1,0.2-0.2,0.3-0.3,0.5c-0.1,0.2-0.1,0.4-0.2,0.6l-0.6,2.7h-0.8l0.6-3
			c0-0.2,0.1-0.4,0.1-0.6c0-0.2,0-0.3,0-0.4c0-0.2-0.1-0.4-0.2-0.5c-0.1-0.1-0.3-0.2-0.5-0.2s-0.5,0.1-0.7,0.2
			c-0.2,0.1-0.4,0.3-0.6,0.5c-0.2,0.2-0.3,0.3-0.4,0.5c-0.1,0.2-0.1,0.4-0.2,0.6l-0.6,2.7h-0.8l1.1-5.2H1502.2z"/>
		<path class="st9" d="M1514,2089.3c-0.2,0.8-0.5,1.5-1.1,2.1c-0.5,0.5-1.2,0.8-2.1,0.8c-0.7,0-1.2-0.2-1.6-0.7
			c-0.3-0.5-0.4-1.1-0.2-2c0.2-0.9,0.6-1.6,1.1-2.1c0.6-0.5,1.2-0.8,2-0.8c0.7,0,1.2,0.2,1.6,0.7S1514.2,2088.5,1514,2089.3z
			 M1513.1,2089.4c0.1-0.5,0.1-0.9,0-1.2c-0.1-0.5-0.5-0.7-1.1-0.7c-0.5,0-1,0.2-1.3,0.6s-0.6,0.9-0.7,1.5c-0.1,0.6-0.1,1,0.1,1.4
			s0.5,0.6,1,0.6c0.6,0,1-0.2,1.3-0.7C1512.8,2090.4,1513,2089.9,1513.1,2089.4z M1510.5,2092.7h0.9l-0.2,1h-0.9L1510.5,2092.7z"/>
		<path class="st9" d="M1516.3,2086.9l-1.1,5.2h-0.8l1.1-5.2H1516.3z M1515.6,2086l0.2-1h0.9l-0.2,1H1515.6z"/>
		<path class="st9" d="M1521.3,2086.9l-0.2,0.8h0c0.2-0.3,0.5-0.5,0.8-0.7c0.3-0.1,0.7-0.2,1-0.2c0.5,0,0.8,0.1,1.1,0.3
			c0.2,0.2,0.4,0.5,0.4,1c0,0.1,0,0.3,0,0.4c0,0.2-0.1,0.4-0.1,0.6l-0.6,3h-0.9l0.7-3c0-0.1,0-0.1,0-0.2c0-0.1,0-0.1,0-0.2
			c0-0.1,0-0.2,0-0.2c0-0.1,0-0.1,0-0.2c0-0.2-0.1-0.4-0.3-0.5c-0.2-0.1-0.4-0.2-0.6-0.2c-0.2,0-0.5,0.1-0.7,0.2s-0.4,0.3-0.6,0.4
			c-0.2,0.1-0.3,0.3-0.4,0.5c-0.1,0.2-0.2,0.4-0.2,0.6l-0.6,2.9h-0.8l1.1-5.2H1521.3z"/>
		<path class="st9" d="M1527.3,2084.9l-0.6,2.7l0,0c0.2-0.3,0.5-0.5,0.8-0.7c0.3-0.1,0.7-0.2,1-0.2c0.5,0,0.8,0.1,1.1,0.3
			c0.2,0.2,0.4,0.5,0.4,1c0,0.1,0,0.3,0,0.4c0,0.2-0.1,0.4-0.1,0.6l-0.6,3h-0.8l0.7-3c0-0.1,0-0.1,0-0.2s0-0.1,0-0.2
			c0-0.1,0-0.2,0-0.2c0-0.1,0-0.1,0-0.2c0-0.2-0.1-0.4-0.3-0.5c-0.2-0.1-0.4-0.2-0.6-0.2c-0.2,0-0.5,0.1-0.7,0.2
			c-0.2,0.1-0.4,0.3-0.6,0.4c-0.2,0.1-0.3,0.3-0.4,0.5c-0.1,0.2-0.2,0.4-0.2,0.6l-0.6,2.9h-0.8l1.5-7.1H1527.3z"/>
		<path class="st9" d="M1531.3,2087.7c0.1-0.2,0.3-0.4,0.5-0.5c0.2-0.1,0.4-0.2,0.7-0.3c0.3-0.1,0.5-0.1,0.8-0.1
			c0.3,0,0.5,0,0.7,0.1c0.2,0,0.4,0.1,0.6,0.2c0.2,0.1,0.3,0.2,0.4,0.4s0.2,0.4,0.2,0.6c0,0.1,0,0.3-0.1,0.5s-0.1,0.3-0.1,0.5
			l-0.3,1.4c0,0.1,0,0.2-0.1,0.4c0,0.1-0.1,0.3-0.1,0.4s0,0.2,0.1,0.2c0,0,0.1,0.1,0.2,0.1c0,0,0.1,0,0.1,0c0,0,0.1,0,0.1,0
			l-0.1,0.6c-0.1,0-0.2,0.1-0.3,0.1c-0.1,0-0.2,0-0.3,0c-0.2,0-0.4-0.1-0.5-0.2c-0.1-0.1-0.2-0.3-0.1-0.5l0,0
			c-0.2,0.2-0.4,0.4-0.7,0.5c-0.3,0.1-0.6,0.2-1.1,0.2c-0.2,0-0.4,0-0.6-0.1c-0.2,0-0.4-0.1-0.5-0.2c-0.1-0.1-0.3-0.3-0.3-0.5
			c-0.1-0.2-0.1-0.4-0.1-0.7c0-0.4,0.1-0.7,0.2-0.9c0.2-0.2,0.4-0.4,0.6-0.5c0.3-0.1,0.5-0.2,0.8-0.2s0.6-0.1,0.9-0.1
			c0.2,0,0.4,0,0.6-0.1c0.2,0,0.3-0.1,0.4-0.1c0.1-0.1,0.2-0.1,0.2-0.2c0-0.1,0.1-0.2,0.1-0.4c0-0.1,0-0.3-0.1-0.3
			c-0.1-0.1-0.2-0.2-0.2-0.2c-0.1,0-0.2-0.1-0.3-0.1c-0.1,0-0.2,0-0.4,0c-0.2,0-0.3,0-0.5,0c-0.2,0-0.3,0.1-0.4,0.2
			c-0.1,0.1-0.2,0.2-0.3,0.3c-0.1,0.1-0.1,0.3-0.2,0.4h-0.9C1531.1,2088.2,1531.2,2087.9,1531.3,2087.7z M1531.6,2091.2
			c0.2,0.1,0.4,0.2,0.6,0.2c0.7,0,1.2-0.2,1.5-0.7c0.1-0.2,0.2-0.4,0.3-0.6c0-0.2,0.1-0.5,0.2-0.7h0c-0.1,0.1-0.3,0.1-0.5,0.2
			c-0.2,0-0.4,0.1-0.6,0.1c-0.2,0-0.4,0-0.6,0.1s-0.4,0.1-0.6,0.1c-0.2,0.1-0.3,0.2-0.4,0.3c-0.1,0.1-0.2,0.3-0.2,0.5
			C1531.3,2090.9,1531.4,2091.1,1531.6,2091.2z M1533.6,2086.2l-1-1.4h1l0.7,1.4H1533.6z"/>
	</g>
</g>
</svg>
