<svg xmlns="http://www.w3.org/2000/svg" width="54.624" height="65.961" viewBox="0 0 54.624 65.961">
  <g id="businessman" transform="translate(-44)">
    <path id="Path_45" data-name="Path 45" d="M103.471,73.385H56.577A2.577,2.577,0,0,1,54,70.808V12.577A2.577,2.577,0,0,1,56.577,10h46.894a2.577,2.577,0,0,1,2.577,2.577V70.808A2.577,2.577,0,0,1,103.471,73.385Z" transform="translate(-8.712 -8.712)" fill="#fff"/>
    <circle id="Ellipse_12" data-name="Ellipse 12" cx="16" cy="16" r="16" transform="translate(55.233 6.508)" fill="#a5ddff"/>
    <path id="Path_46" data-name="Path 46" d="M45.288,169.577a1.289,1.289,0,1,1,.911-.378A1.3,1.3,0,0,1,45.288,169.577Z" transform="translate(0 -145.485)"/>
    <path id="Path_47" data-name="Path 47" d="M94.759,65.961H47.865A3.869,3.869,0,0,1,44,62.1V27.613a1.288,1.288,0,1,1,2.577,0V62.1a1.29,1.29,0,0,0,1.288,1.288H94.759A1.29,1.29,0,0,0,96.047,62.1V3.865a1.29,1.29,0,0,0-1.288-1.288H68.693a1.288,1.288,0,1,1,0-2.577H94.759a3.869,3.869,0,0,1,3.865,3.865V62.1A3.869,3.869,0,0,1,94.759,65.961Z" transform="translate(0 0)"/>
    <path id="Path_48" data-name="Path 48" d="M227.049,123.275v1.256a5.024,5.024,0,0,1-5.024,5.024h0A5.024,5.024,0,0,1,217,124.531v-1.256a5.024,5.024,0,0,1,5.024-5.024h0A5.024,5.024,0,0,1,227.049,123.275Z" transform="translate(-150.712 -103.017)" fill="#ffcdac"/>
    <path id="Path_49" data-name="Path 49" d="M183.04,206h0a11.6,11.6,0,0,0-10.789,7.35,15.834,15.834,0,0,0,21.579,0A11.6,11.6,0,0,0,183.04,206Z" transform="translate(-111.728 -179.462)" fill="#95e540"/>
    <path id="Path_50" data-name="Path 50" d="M141.612,40a17.341,17.341,0,0,0-2.618.2,1.288,1.288,0,0,0,.39,2.547,14.736,14.736,0,0,1,2.228-.169A14.55,14.55,0,0,1,152.746,66.5a12.908,12.908,0,0,0-6.725-5.628,6.293,6.293,0,0,0,1.9-4.512V55.106a6.313,6.313,0,1,0-12.625,0v1.256a6.293,6.293,0,0,0,1.9,4.512,12.91,12.91,0,0,0-6.739,5.651,14.51,14.51,0,0,1-3.209-6.963,1.288,1.288,0,0,0-2.541.426A17.136,17.136,0,1,0,141.612,40Zm-3.736,16.362V55.105a3.736,3.736,0,1,1,7.472,0v1.256a3.736,3.736,0,1,1-7.472,0Zm-5.5,12.048a10.3,10.3,0,0,1,18.462-.022,14.581,14.581,0,0,1-18.462.022Z" transform="translate(-70.3 -34.847)"/>
    <path id="Path_51" data-name="Path 51" d="M215.939,400.579H197.645a1.288,1.288,0,0,1,0-2.577h18.294a1.288,1.288,0,1,1,0,2.577Z" transform="translate(-132.729 -346.727)"/>
    <path id="Path_52" data-name="Path 52" d="M154.928,344.577a1.289,1.289,0,1,1,.911-.378A1.3,1.3,0,0,1,154.928,344.577Z" transform="translate(-95.515 -297.94)"/>
    <path id="Path_53" data-name="Path 53" d="M154.928,400.577a1.289,1.289,0,1,1,.911-.378A1.3,1.3,0,0,1,154.928,400.577Z" transform="translate(-95.515 -346.726)"/>
    <path id="Path_54" data-name="Path 54" d="M215.939,344.579H197.645a1.288,1.288,0,1,1,0-2.577h18.294a1.288,1.288,0,1,1,0,2.577Z" transform="translate(-132.729 -297.942)"/>
    <ellipse id="Ellipse_13" data-name="Ellipse 13" cx="9" cy="10" rx="9" ry="10" transform="translate(45.233 0.508)" fill="#fe6663"/>
    <path id="Path_55" data-name="Path 55" d="M90.349,62.384a1.284,1.284,0,0,1-.911-.377l-2.345-2.345a1.288,1.288,0,1,1,1.822-1.822l1.434,1.434,4.2-4.2A1.288,1.288,0,0,1,96.367,56.9L91.26,62.007A1.285,1.285,0,0,1,90.349,62.384Z" transform="translate(-37.213 -47.654)"/>
    <path id="Path_56" data-name="Path 56" d="M54.564,21.128A10.564,10.564,0,1,1,65.128,10.564,10.576,10.576,0,0,1,54.564,21.128Zm0-18.552a7.987,7.987,0,1,0,7.987,7.987A8,8,0,0,0,54.564,2.577Z"/>
  </g>
</svg>
