<svg xmlns="http://www.w3.org/2000/svg" width="61.828" height="61.847" viewBox="0 0 61.828 61.847">
  <g id="payment_1_" data-name="payment (1)" transform="translate(-0.501)">
    <path id="Path_57" data-name="Path 57" d="M131.821,223.9a3.609,3.609,0,0,0-5.084.428l-8.26,8.49h.008a3.693,3.693,0,0,0-3.544-2.657h-13.68a14.444,14.444,0,0,0-5.8-1.207c-5.715,0-10.656,2.77-13.016,8.02l10.92,10.864.02-.016,1.88-1.814a4.827,4.827,0,0,1,3.353-1.355h16.095a9.62,9.62,0,0,0,6.71-2.726l10.826-12.943A3.608,3.608,0,0,0,131.821,223.9Zm0,0" transform="translate(-72.046 -196.105)" fill="#fed2a4"/>
    <path id="Path_58" data-name="Path 58" d="M222.348,22.072A12.076,12.076,0,1,1,210.271,10,12.076,12.076,0,0,1,222.348,22.072Zm0,0" transform="translate(-173.814 -8.789)" fill="#ffe781"/>
    <path id="Path_59" data-name="Path 59" d="M29.654,349.711l-5.849,5.762L10.246,341.809l5.745-5.762a2.416,2.416,0,0,1,3.416,0l10.247,10.247A2.416,2.416,0,0,1,29.654,349.711Zm0,0" transform="translate(-8.568 -294.833)" fill="#e87288"/>
    <path id="Path_60" data-name="Path 60" d="M220.786,332.256a1.208,1.208,0,1,0-1.709,0A1.209,1.209,0,0,0,220.786,332.256Zm0,0" transform="translate(-191.863 -290.308)"/>
    <path id="Path_61" data-name="Path 61" d="M188.449,13.284A13.284,13.284,0,1,0,201.733,0,13.3,13.3,0,0,0,188.449,13.284Zm24.152,0A10.869,10.869,0,1,1,201.733,2.415,10.881,10.881,0,0,1,212.6,13.284Zm0,0" transform="translate(-165.245)"/>
    <path id="Path_62" data-name="Path 62" d="M14.411,248.162a1.207,1.207,0,0,0,1.7.01L21.97,242.4a3.649,3.649,0,0,0,.86-3.747l1.259-1.215a3.6,3.6,0,0,1,2.515-1.016H42.657a10.812,10.812,0,0,0,7.581-3.08c.084-.082-.637.768,10.952-13.084a4.831,4.831,0,0,0-7.351-6.27l-7.126,7.324a4.853,4.853,0,0,0-3.755-1.8H29.493a15.58,15.58,0,0,0-6.047-1.207c-5.815,0-10.893,2.686-13.618,7.721a3.607,3.607,0,0,0-3.23,1L.853,232.8a1.208,1.208,0,0,0,0,1.7Zm9.035-27.435a13.183,13.183,0,0,1,5.316,1.106,1.205,1.205,0,0,0,.484.1H42.959a2.415,2.415,0,1,1,0,4.83H33.106a1.207,1.207,0,1,0,0,2.415h9.853a4.823,4.823,0,0,0,4.788-5.462c6.893-7.086,7.865-8.081,7.907-8.131a2.416,2.416,0,1,1,3.688,3.121L48.511,231.657a8.409,8.409,0,0,1-5.853,2.354H26.6a6,6,0,0,0-4.192,1.693l-1.026.99-9.461-9.46C14.136,223.086,18.285,220.727,23.445,220.727ZM8.307,228.741a1.2,1.2,0,0,1,1.5-.17c.209.127-.391-.419,10.46,10.417a1.21,1.21,0,0,1,.007,1.7l-4.991,4.917L3.412,233.651Zm0,0" transform="translate(0 -186.672)"/>
    <path id="Path_63" data-name="Path 63" d="M268.03,41.235v1.378a3.622,3.622,0,0,0,1.186,7.038,1.229,1.229,0,0,1,1.222,1.068,1.209,1.209,0,0,1-1.2,1.347,2.169,2.169,0,0,1-1.55-.892,1.231,1.231,0,0,0-1.554-.287,1.209,1.209,0,0,0-.313,1.819,5.009,5.009,0,0,0,2.209,1.573v1.372a1.233,1.233,0,0,0,1.028,1.232,1.208,1.208,0,0,0,1.387-1.195V54.274a3.622,3.622,0,0,0-1.186-7.038,1.229,1.229,0,0,1-1.222-1.068,1.209,1.209,0,0,1,1.2-1.347,1.915,1.915,0,0,1,1.277.6,1.24,1.24,0,0,0,1.581.135,1.208,1.208,0,0,0,.128-1.844,4.665,4.665,0,0,0-1.778-1.112V41.2A1.208,1.208,0,0,0,269.058,40,1.232,1.232,0,0,0,268.03,41.235Zm0,0" transform="translate(-233.021 -35.16)"/>
  </g>
</svg>
