<svg id="users" xmlns="http://www.w3.org/2000/svg" width="73.828" height="73.828" viewBox="0 0 73.828 73.828">
  <path id="Path_31" data-name="Path 31" d="M43.761,8h0A35.791,35.791,0,0,0,8,43.761H8a35.791,35.791,0,0,0,35.761,35.76h0a35.791,35.791,0,0,0,35.76-35.76h0A35.791,35.791,0,0,0,43.761,8Z" transform="translate(-6.846 -6.846)" fill="#e1e6e9"/>
  <path id="Path_32" data-name="Path 32" d="M313.017,147.2h-.692a9.363,9.363,0,0,1-7.152,3.691,8.855,8.855,0,0,1-7.152-3.691H297.1a7.483,7.483,0,0,0-7.5,7.5v4.384h30.916V154.7A7.483,7.483,0,0,0,313.017,147.2Z" transform="translate(-247.841 -125.974)" fill="#4fbf9f"/>
  <g id="Group_17" data-name="Group 17" transform="translate(49.603 1.166)">
    <path id="Path_33" data-name="Path 33" d="M364.595,41.4c0,4.268-2.769,7.844-6.345,7.844-3.461,0-6.345-3.461-6.345-7.844,0-1.615-.461-4.614.231-5.883,1.154-2.192,3.922-1.961,6.114-1.961,2.422,0,5.537-.115,6.575,2.307C365.4,37.019,364.595,40.134,364.595,41.4Z" transform="translate(-350.637 -29.88)" fill="#fff"/>
    <path id="Path_34" data-name="Path 34" d="M359.112,12.457a2.623,2.623,0,0,0-1.961-2.192,1.412,1.412,0,0,0-.807-1.846,37.529,37.529,0,0,0-7.729-.231A4.65,4.65,0,0,0,344,12.226v.807h0v4.037l1.384,1.961a7.893,7.893,0,0,1,7.96-7.267s.923,3.807,4.5,4.153l.346.231v2.884a4.007,4.007,0,0,1,1.154-2.192C359.227,15.8,359.112,12.457,359.112,12.457Z" transform="translate(-344 -8.086)" fill="#fff"/>
  </g>
  <path id="Path_35" data-name="Path 35" d="M31.533,421.6h-.692a9.363,9.363,0,0,1-7.152,3.691,9.02,9.02,0,0,1-7.152-3.691H15.5A7.483,7.483,0,0,0,8,429.1v4.384H39.031V429.1A7.483,7.483,0,0,0,31.533,421.6Z" transform="translate(-6.846 -360.807)" fill="#fdbf5e"/>
  <g id="Group_18" data-name="Group 18" transform="translate(8.998 18.976)">
    <path id="Path_36" data-name="Path 36" d="M83.795,316.6c0,4.268-2.769,7.844-6.345,7.844s-6.345-3.461-6.345-7.844c0-1.615-.461-4.614.231-5.883,1.154-2.192,3.922-1.961,6.114-1.961,2.422,0,5.537-.115,6.575,2.307C84.6,312.219,83.795,315.219,83.795,316.6Z" transform="translate(-69.721 -283.207)" fill="#fff"/>
    <path id="Path_37" data-name="Path 37" d="M77.627,287.116a2.623,2.623,0,0,0-1.961-2.192,1.412,1.412,0,0,0-.807-1.846,35.451,35.451,0,0,0-7.844-.115A4.65,4.65,0,0,0,62.4,287v.807h0v4.037l1.384,1.961a7.893,7.893,0,0,1,7.96-7.267s.923,3.807,4.5,4.153l.346.231v2.884a4.007,4.007,0,0,1,1.154-2.192C77.742,290.461,77.627,287.116,77.627,287.116Z" transform="translate(-62.4 -260.987)" fill="#fff"/>
    <path id="Path_38" data-name="Path 38" d="M109.809,149.538l-9-9a4.318,4.318,0,0,1,0-6l1.73-1.73a4.178,4.178,0,0,1,5.883,0l9,9a4.318,4.318,0,0,1,0,6l-1.615,1.73A4.318,4.318,0,0,1,109.809,149.538Z" transform="translate(-94.236 -131.6)" fill="#fff"/>
    <path id="Path_39" data-name="Path 39" d="M245.009,283.938l-9-9a4.319,4.319,0,0,1,0-6l1.73-1.73a4.178,4.178,0,0,1,5.883,0l9,9a4.318,4.318,0,0,1,0,6l-1.73,1.73A3.983,3.983,0,0,1,245.009,283.938Z" transform="translate(-209.941 -246.62)" fill="#fff"/>
  </g>
  <g id="Group_19" data-name="Group 19">
    <path id="Path_40" data-name="Path 40" d="M306.171,139.2H304.9l-.346.461a7.988,7.988,0,0,1-6.229,3.23,7.82,7.82,0,0,1-6.229-3.23l-.346-.461h-1.5a8.64,8.64,0,0,0-8.652,8.652v5.537h33.223v-5.537A8.64,8.64,0,0,0,306.171,139.2Zm6.345,11.766H283.792v-3.23a6.4,6.4,0,0,1,6.345-6.345h.461a10.515,10.515,0,0,0,7.729,3.691,10.119,10.119,0,0,0,7.729-3.691h.231a6.4,6.4,0,0,1,6.345,6.345v3.23Z" transform="translate(-240.995 -119.128)" fill="#193651"/>
    <path id="Path_41" data-name="Path 41" d="M336.7,12.574v.115c0,4.96,3.345,9,7.5,9s7.5-4.037,7.5-9a2.867,2.867,0,0,1,.115-.923h0a3.273,3.273,0,0,1,.692-1.038l.346-.346V9.921c.115-1.154,0-4.268,0-4.614A3.157,3.157,0,0,0,351,2.422a2.394,2.394,0,0,0-1.73-2.192h-.115C348,.115,346.5,0,344.89,0c-2.076,0-3.807.115-3.807.115-1.73,0-4.73.692-5.768,4.845a2.59,2.59,0,0,0-.115,1.154v4.5Zm7.383,6.806c-2.884,0-5.191-3-5.191-6.691v-.461h0v-.115a6.611,6.611,0,0,1,6-6.114,6.691,6.691,0,0,0,4.384,4.037V12h0v.577C349.273,16.381,346.966,19.38,344.082,19.38ZM337.507,6.114V5.422a3.406,3.406,0,0,1,3.576-3s1.73-.115,3.691-.115a29.8,29.8,0,0,1,3.691.231c.115.115,0,.231,0,.461l-.231,1.038,1.038.346c.115,0,1.038.346,1.038,1.154V7.96h-.231a4.3,4.3,0,0,1-3.461-3.345l-.231-.923h-.923a8.637,8.637,0,0,0-8.075,4.96A15.537,15.537,0,0,0,337.507,6.114Z" transform="translate(-286.866)" fill="#193651"/>
    <path id="Path_42" data-name="Path 42" d="M24.686,413.6H23.417l-.346.461a7.988,7.988,0,0,1-6.229,3.23,7.82,7.82,0,0,1-6.229-3.23l-.346-.461H8.652A8.64,8.64,0,0,0,0,422.252v5.537H33.338v-5.537A8.715,8.715,0,0,0,24.686,413.6Zm6.345,11.882H2.307v-3.23a6.4,6.4,0,0,1,6.345-6.345H9a10.515,10.515,0,0,0,7.729,3.691,10.119,10.119,0,0,0,7.729-3.691h.231a6.4,6.4,0,0,1,6.345,6.345v3.23Z" transform="translate(0 -353.961)" fill="#193651"/>
    <path id="Path_43" data-name="Path 43" d="M56.584,287.774v.115c0,4.96,3.345,9,7.5,9s7.5-4.037,7.5-9a1.963,1.963,0,0,1,.115-.807h0a3.273,3.273,0,0,1,.692-1.038l.346-.346v-.461c.115-1.154,0-4.268,0-4.614a3.157,3.157,0,0,0-1.846-2.884,2.454,2.454,0,0,0-1.615-2.192h-.115a21.944,21.944,0,0,0-4.268-.346c-2.076,0-3.807.115-3.807.115-1.73,0-4.73.692-5.768,4.845a2.59,2.59,0,0,0-.115,1.154v4.5Zm7.383,6.691c-2.884,0-5.191-3-5.191-6.691v-.692h0a6.478,6.478,0,0,1,5.883-5.883,6.691,6.691,0,0,0,4.384,4.037V287.2h0v.577C69.158,291.581,66.851,294.464,63.967,294.464Zm-6.575-13.151v-.692a3.543,3.543,0,0,1,3.576-3s1.73-.115,3.691-.115a29.8,29.8,0,0,1,3.691.231s.115.115,0,.461l-.231,1.038,1.038.346c.115,0,1.038.346,1.038,1.154v2.423h-.231a4.3,4.3,0,0,1-3.461-3.345l-.231-.923h-.923a8.637,8.637,0,0,0-8.075,4.96A16.287,16.287,0,0,0,57.392,281.314Z" transform="translate(-47.24 -235.517)" fill="#193651"/>
    <path id="Path_44" data-name="Path 44" d="M121.2,144.31a5.231,5.231,0,0,0-3.807-1.615,5.428,5.428,0,0,0-3.807,1.615h0l-2.884-2.884h0a5.431,5.431,0,0,0,0-7.614l-9-9a5.231,5.231,0,0,0-3.807-1.615,5.428,5.428,0,0,0-3.807,1.615l-1.73,1.73a5.431,5.431,0,0,0,0,7.614l9,9a5.231,5.231,0,0,0,3.807,1.615,5.428,5.428,0,0,0,3.807-1.615h0l2.884,2.884h0a5.431,5.431,0,0,0,0,7.614l9,9a5.231,5.231,0,0,0,3.807,1.615,5.428,5.428,0,0,0,3.807-1.615l1.73-1.73a5.431,5.431,0,0,0,0-7.614Zm-13.727-2.769a3.065,3.065,0,0,1-4.268,0l-9-9a3.065,3.065,0,0,1,0-4.268l1.73-1.73a3.064,3.064,0,0,1,4.384,0l9,9a3.065,3.065,0,0,1,0,4.268h0l-6.691-6.691-1.846,1.73,6.691,6.691Zm21.11,17.65-1.73,1.73a3.065,3.065,0,0,1-4.268,0l-9-9a3.065,3.065,0,0,1,0-4.268h0l6.691,6.691,1.615-1.615-6.691-6.691h0a3.064,3.064,0,0,1,4.384,0l9,9A2.924,2.924,0,0,1,128.579,159.191Z" transform="translate(-77.707 -105.435)" fill="#193651"/>
    <rect id="Rectangle_39" data-name="Rectangle 39" width="2.307" height="2.307" transform="matrix(0.156, -0.988, 0.988, 0.156, 8.782, 33.6)" fill="#193651"/>
    <rect id="Rectangle_40" data-name="Rectangle 40" width="2.307" height="2.307" transform="matrix(0.156, -0.988, 0.988, 0.156, 62.402, 42.149)" fill="#193651"/>
    <rect id="Rectangle_41" data-name="Rectangle 41" width="2.307" height="2.307" transform="translate(38.155 10.853) rotate(-179.496)" fill="#193651"/>
    <rect id="Rectangle_42" data-name="Rectangle 42" width="2.307" height="2.307" transform="translate(37.869 65.187) rotate(-179.496)" fill="#193651"/>
  </g>
</svg>
