<svg id="website" xmlns="http://www.w3.org/2000/svg" width="60.907" height="58.29" viewBox="0 0 60.907 58.29">
  <path id="Path_6" data-name="Path 6" d="M198.668,7.5h10.594a2.379,2.379,0,0,1,2.319,1.849l.529,2.315v.853H198.668Zm0,0" transform="translate(-175.035 -6.608)" fill="#919191"/>
  <path id="Path_7" data-name="Path 7" d="M110,7.5h11.625a2.379,2.379,0,0,1,2.319,1.849l.529,2.315v.853H110Zm0,0" transform="translate(-96.915 -6.608)" fill="#afafaf"/>
  <path id="Path_8" data-name="Path 8" d="M7.5,17.611V9.879A2.379,2.379,0,0,1,9.879,7.5H20.83a2.38,2.38,0,0,1,2.32,1.849l.529,2.315H64.243a2.379,2.379,0,0,1,2.379,2.379v3.569Zm0,0" transform="translate(-6.608 -6.608)" fill="#d8d8d8"/>
  <path id="Path_9" data-name="Path 9" d="M460.448,44.879v3.569h-3.569V44.879A2.378,2.378,0,0,0,454.5,42.5h3.569A2.378,2.378,0,0,1,460.448,44.879Zm0,0" transform="translate(-400.433 -37.444)" fill="#afafaf"/>
  <path id="Path_10" data-name="Path 10" d="M64.243,115.567a2.379,2.379,0,0,0,2.379-2.379V77.5H7.5v35.687a2.379,2.379,0,0,0,2.379,2.379Zm0,0" transform="translate(-6.608 -68.281)" fill="#f2d67c"/>
  <path id="Path_11" data-name="Path 11" d="M461.356,77.5v35.687a2.378,2.378,0,0,1-2.379,2.379h-3.446a2.378,2.378,0,0,0,2.256-2.375V77.5Zm0,0" transform="translate(-401.342 -68.281)" fill="#e2b061"/>
  <path id="Path_12" data-name="Path 12" d="M88.89,113.1a.63.63,0,0,0,.595-.661V79.411a.63.63,0,0,0-.595-.661h-50.8a.63.63,0,0,0-.595.661v33.028a.63.63,0,0,0,.595.661Zm0,0" transform="translate(-33.039 -69.382)" fill="#fafeff"/>
  <path id="Path_13" data-name="Path 13" d="M252.47,142.5v7.137H235.095a.6.6,0,0,1-.595-.595v-5.948a.6.6,0,0,1,.595-.595Zm0,0" transform="translate(-206.604 -125.548)" fill="#aac9e2"/>
  <path id="Path_14" data-name="Path 14" d="M382.451,143.095v5.948a.6.6,0,0,1-.595.595h-6.3V142.5h6.3A.6.6,0,0,1,382.451,143.095Zm0,0" transform="translate(-330.883 -125.548)" fill="#6095b2"/>
  <path id="Path_15" data-name="Path 15" d="M252.47,239.637H235.095a.6.6,0,0,1-.595-.595v-5.948a.6.6,0,0,1,.595-.595H252.47Zm0,0" transform="translate(-206.604 -204.842)" fill="#aac9e2"/>
  <path id="Path_16" data-name="Path 16" d="M382.451,233.095v5.948a.6.6,0,0,1-.595.595h-6.3V232.5h6.3A.6.6,0,0,1,382.451,233.095Zm0,0" transform="translate(-330.883 -204.842)" fill="#6095b2"/>
  <path id="Path_17" data-name="Path 17" d="M303.682,444.615H294.4a1.9,1.9,0,0,1-1.9-1.9V439.5h13.085v3.212A1.9,1.9,0,0,1,303.682,444.615Zm0,0" transform="translate(-257.705 -387.218)" fill="#ef9867"/>
  <path id="Path_18" data-name="Path 18" d="M361.972,448.871v2.1a1.9,1.9,0,0,1-1.9,1.9H356.5a1.9,1.9,0,0,0,1.9-1.9v-2.022h2.974A2.4,2.4,0,0,0,361.972,448.871Zm0,0" transform="translate(-314.091 -395.474)" fill="#d16346"/>
  <path id="Path_19" data-name="Path 19" d="M247.1,350.635l-1.836-.718A3.569,3.569,0,0,1,243,346.593v-4.96a2.052,2.052,0,0,1,4.1,0c0,1.4,1.546,4.184,1.546,4.184Zm0,0" transform="translate(-214.093 -299.186)" fill="#afafaf"/>
  <path id="Path_20" data-name="Path 20" d="M292.032,269.423a2.081,2.081,0,0,0-2.042,2.081,2.082,2.082,0,0,0-4.164,0,2.082,2.082,0,0,0-4.164,0v-8.867a2.126,2.126,0,0,0-2.122-2.136,2.082,2.082,0,0,0-2.042,2.081V280.6a2.379,2.379,0,0,0,2.379,2.379h11.9a2.379,2.379,0,0,0,2.379-2.379v-9.045A2.126,2.126,0,0,0,292.032,269.423Zm0,0" transform="translate(-244.489 -229.512)" fill="#d8d8d8"/>
  <path id="Path_21" data-name="Path 21" d="M377.853,337.634v9.045a2.376,2.376,0,0,1-2.379,2.379H372.5v-.075a2.385,2.385,0,0,0,1.784-2.3v-9.045a2.141,2.141,0,0,0-.309-1.108,2.082,2.082,0,0,1,1.757-1.029A2.127,2.127,0,0,1,377.853,337.634Zm0,0" transform="translate(-328.188 -295.587)" fill="#afafaf"/>
  <path id="Path_22" data-name="Path 22" d="M57.635,4.164H37.786l-.37-1.621A3.256,3.256,0,0,0,34.227,0H3.271A3.275,3.275,0,0,0,0,3.271V44.907a3.275,3.275,0,0,0,3.271,3.271H28.083a4.429,4.429,0,0,0,2.768,3.384l1.436.562A3.287,3.287,0,0,0,33.9,54.005v1.489a2.8,2.8,0,0,0,2.8,2.8h9.279a2.8,2.8,0,0,0,2.8-2.8V54a3.274,3.274,0,0,0,1.784-2.912V44.609h5.294a1.488,1.488,0,0,0,1.487-1.487V10.111h1.784v34.8a1.488,1.488,0,0,1-1.487,1.487H53.829a.892.892,0,1,0,0,1.784h3.807a3.275,3.275,0,0,0,3.271-3.271V7.435A3.275,3.275,0,0,0,57.635,4.164ZM35.676,2.94l.28,1.224H28.27L27.9,2.542a3.309,3.309,0,0,0-.275-.758h6.6A1.479,1.479,0,0,1,35.676,2.94ZM24.71,1.784A1.48,1.48,0,0,1,26.16,2.94l.279,1.224H17.782l-.371-1.621a3.309,3.309,0,0,0-.275-.758Zm-21.439,0H14.222a1.48,1.48,0,0,1,1.45,1.156L16.2,5.255a.893.893,0,0,0,.87.693H57.635a1.489,1.489,0,0,1,1.487,1.487v.892H1.784V3.271A1.488,1.488,0,0,1,3.271,1.784ZM29.8,47.408V42.449a1.162,1.162,0,0,1,1.154-1.16,1.158,1.158,0,0,1,1.165,1.159v7.695L31.5,49.9A2.661,2.661,0,0,1,29.8,47.408ZM50.676,28.55V33.9H45.568V28.55ZM43.784,33.9H38.067v-.778a3.071,3.071,0,0,0-.917-2.177,2.924,2.924,0,0,0-2.113-.851,2.989,2.989,0,0,0-2.917,2.973V33.9H28.788V28.55h15Zm2.194,22.6H36.7a1.012,1.012,0,0,1-1.011-1.011v-1.13h11.3v1.13A1.012,1.012,0,0,1,45.977,56.505Zm2.8-5.413a1.488,1.488,0,0,1-1.487,1.487H35.39A1.488,1.488,0,0,1,33.9,51.093V33.07a1.2,1.2,0,0,1,1.167-1.19h.02a1.152,1.152,0,0,1,.809.34,1.275,1.275,0,0,1,.383.9V44.134a.892.892,0,0,0,1.784,0V41.992a1.19,1.19,0,1,1,2.379,0v2.141a.892.892,0,0,0,1.784,0V41.992a1.19,1.19,0,0,1,2.379,0v2.141a.892.892,0,0,0,1.784,0V41.992a1.2,1.2,0,0,1,1.167-1.19,1.152,1.152,0,0,1,.83.34,1.277,1.277,0,0,1,.383.9v9.046Zm6.781-8.268h-5v-.778a3.071,3.071,0,0,0-.917-2.177,2.916,2.916,0,0,0-2.113-.851,2.963,2.963,0,0,0-2.022.855,2.969,2.969,0,0,0-4.167,0,2.971,2.971,0,0,0-3.271-.6V35.687H50.974A1.488,1.488,0,0,0,52.461,34.2V28.253a1.488,1.488,0,0,0-1.487-1.487H28.491A1.488,1.488,0,0,0,27,28.253V34.2a1.488,1.488,0,0,0,1.487,1.487h3.628v4.053a2.94,2.94,0,0,0-1.159-.237h-.014a2.95,2.95,0,0,0-2.93,2.944v.376H5.353V13.383a.892.892,0,1,0-1.784,0v29.74a1.488,1.488,0,0,0,1.487,1.487H28.015v1.784H3.271a1.488,1.488,0,0,1-1.487-1.487v-34.8H55.554Zm0,0"/>
  <path id="Path_23" data-name="Path 23" d="M228.487,143.922H250.97a1.488,1.488,0,0,0,1.487-1.487v-5.948A1.488,1.488,0,0,0,250.97,135H228.487A1.488,1.488,0,0,0,227,136.487v5.948A1.488,1.488,0,0,0,228.487,143.922Zm22.186-1.784h-5.108v-5.353h5.108Zm-21.888-5.353h15v5.353h-15Zm0,0" transform="translate(-199.996 -118.941)"/>
  <path id="Path_24" data-name="Path 24" d="M71.392,136.784H84.716a.892.892,0,0,0,0-1.784H71.392a.892.892,0,1,0,0,1.784Zm0,0" transform="translate(-62.113 -118.941)"/>
  <path id="Path_25" data-name="Path 25" d="M71.392,166.784H84.716a.892.892,0,0,0,0-1.784H71.392a.892.892,0,1,0,0,1.784Zm0,0" transform="translate(-62.113 -145.372)"/>
  <path id="Path_26" data-name="Path 26" d="M71.392,196.784h9.279a.892.892,0,1,0,0-1.784H71.392a.892.892,0,1,0,0,1.784Zm0,0" transform="translate(-62.113 -171.803)"/>
  <path id="Path_27" data-name="Path 27" d="M71.392,226.784H84.716a.892.892,0,0,0,0-1.784H71.392a.892.892,0,1,0,0,1.784Zm0,0" transform="translate(-62.113 -198.234)"/>
  <path id="Path_28" data-name="Path 28" d="M71.392,256.784h9.279a.892.892,0,1,0,0-1.784H71.392a.892.892,0,1,0,0,1.784Zm0,0" transform="translate(-62.113 -224.666)"/>
  <path id="Path_29" data-name="Path 29" d="M71.392,285.784H77.1a.892.892,0,0,0,0-1.784h-5.71a.892.892,0,1,0,0,1.784Zm0,0" transform="translate(-62.113 -250.216)"/>
  <path id="Path_30" data-name="Path 30" d="M42.392,36.784h6.067a.892.892,0,0,0,0-1.784H42.392a.892.892,0,1,0,0,1.784Zm0,0" transform="translate(-36.563 -30.836)"/>
</svg>
